<?xml version="1.0" standalone="no"?>
<!DOCTYPE svg PUBLIC "-//W3C//DTD SVG 20010904//EN"
 "http://www.w3.org/TR/2001/REC-SVG-20010904/DTD/svg10.dtd">
<svg version="1.0" xmlns="http://www.w3.org/2000/svg"
 width="1280.000000pt" height="730.000000pt" viewBox="0 0 1280.000000 730.000000"
 preserveAspectRatio="xMidYMid meet">
<g transform="translate(0.000000,730.000000) scale(0.100000,-0.100000)"
fill="#000000" stroke="none">
<path d="M11240 7155 c0 -120 -8 -185 -21 -185 -5 0 -26 26 -46 57 -33 49 -38
53 -41 33 -2 -13 16 -63 42 -116 44 -86 47 -98 49 -178 3 -109 -13 -131 -43
-62 -11 26 -20 64 -20 84 0 49 -19 114 -31 107 -5 -4 -9 -17 -9 -31 0 -39 -27
-41 -64 -5 -57 55 -63 14 -11 -83 38 -73 43 -97 20 -116 -17 -14 -20 -56 -4
-65 5 -4 19 1 29 10 27 25 40 10 40 -45 0 -56 -15 -67 -51 -39 -13 10 -27 19
-31 19 -17 0 -6 -39 22 -83 34 -55 35 -57 16 -57 -8 0 -23 -12 -34 -27 -19
-26 -21 -26 -43 -11 -13 9 -50 39 -82 67 -32 28 -62 51 -68 51 -26 0 6 -83 41
-107 26 -18 25 -30 -2 -39 -13 -3 -28 -11 -35 -16 -16 -13 -5 -38 17 -38 22 0
50 -31 50 -55 0 -10 10 -29 22 -42 25 -27 19 -35 -35 -53 -43 -13 -55 -33 -36
-56 9 -11 22 -13 50 -9 30 5 41 2 58 -17 18 -19 25 -20 39 -10 29 20 41 24 58
18 13 -5 13 -10 -5 -35 -12 -16 -21 -34 -21 -40 0 -14 37 -15 45 -1 13 21 25
9 25 -25 0 -22 5 -35 13 -35 16 0 57 37 57 50 0 6 7 10 15 10 13 0 35 -56 35
-92 0 -25 -29 -37 -107 -44 -78 -7 -110 4 -182 61 -31 25 -47 33 -54 26 -8 -8
-3 -19 16 -39 32 -34 34 -42 7 -42 -34 0 -92 35 -148 89 -29 28 -57 51 -62 51
-6 0 -10 -18 -10 -39 0 -43 -2 -44 -77 -56 -24 -4 -45 -10 -48 -15 -20 -32 56
-75 122 -67 54 6 63 -6 29 -40 -14 -14 -26 -34 -26 -44 0 -32 34 -22 74 21 20
22 46 40 56 40 27 0 25 -9 -11 -46 -30 -31 -31 -33 -15 -55 9 -13 16 -31 16
-41 0 -10 5 -18 10 -18 6 0 10 4 10 9 0 5 19 18 43 29 23 11 51 29 61 41 11
12 23 21 28 21 19 0 5 -34 -32 -74 -22 -24 -40 -48 -40 -55 0 -14 36 -15 45
-1 11 18 34 10 37 -12 3 -21 5 -21 21 10 12 22 25 32 42 32 13 0 27 5 30 10 3
6 18 10 32 10 38 0 80 35 99 85 19 52 34 50 34 -5 0 -31 -9 -50 -43 -92 -45
-55 -185 -178 -202 -178 -5 0 -39 20 -74 45 -36 25 -66 43 -69 40 -2 -2 1 -18
7 -36 6 -18 9 -34 6 -37 -4 -4 -64 14 -107 32 -12 6 -17 2 -20 -16 -3 -21 -8
-23 -63 -23 -58 0 -60 -1 -63 -27 -2 -21 1 -28 13 -28 13 0 15 -6 10 -29 -5
-25 -3 -30 17 -33 13 -2 27 -13 33 -25 5 -12 18 -24 28 -27 10 -2 21 -14 24
-26 4 -14 11 -19 24 -15 43 14 80 -75 44 -105 -13 -11 -20 -9 -38 9 -27 24
-48 26 -80 9 -12 -7 -24 -14 -26 -15 -2 -1 6 -14 18 -29 21 -27 25 -52 15 -91
-9 -34 -39 -28 -70 12 -14 19 -33 35 -41 35 -11 0 -12 -8 -7 -35 6 -33 5 -35
-22 -35 -16 0 -46 5 -67 11 -50 14 -59 3 -24 -27 17 -15 27 -31 23 -39 -7 -18
-46 -20 -46 -2 0 7 -6 25 -12 40 -11 22 -19 27 -43 25 -25 -3 -31 1 -33 20 -3
21 -6 21 -49 -18 -55 -48 -80 -56 -128 -40 -41 14 -53 34 -37 61 20 31 14 39
-28 39 -75 0 -102 26 -129 125 -14 51 -14 92 0 101 16 10 29 -15 29 -59 0 -47
26 -110 42 -105 7 3 17 19 22 36 11 39 23 41 37 5 24 -63 76 -89 64 -33 -14
65 41 82 68 21 29 -65 77 -92 77 -42 0 9 6 26 14 36 14 19 15 19 35 1 20 -18
22 -18 67 1 71 28 74 42 24 91 -24 23 -50 42 -58 42 -7 0 -30 7 -49 17 -32 15
-35 19 -30 49 7 43 -14 51 -65 24 -21 -11 -47 -20 -56 -20 -10 0 -28 -13 -40
-30 -27 -36 -49 -38 -58 -5 -5 20 -10 23 -34 19 -30 -7 -80 19 -80 41 0 15 87
9 107 -7 7 -6 27 -11 44 -12 37 -2 92 43 87 70 -2 10 6 23 18 29 29 15 54 36
54 46 0 4 -20 11 -45 14 -24 4 -52 13 -61 20 -15 11 -16 16 -5 44 14 32 38 40
59 19 10 -10 19 -4 43 25 17 20 37 37 45 37 8 0 14 9 14 20 0 15 -9 22 -30 26
-49 10 -55 27 -25 78 14 24 32 50 40 56 21 17 9 30 -26 30 -39 0 -45 19 -20
69 40 78 22 95 -28 26 -18 -25 -35 -45 -38 -45 -4 0 -17 9 -29 21 l-22 21 -15
-29 c-8 -15 -22 -54 -32 -85 -9 -31 -26 -69 -37 -85 -42 -55 -92 -103 -110
-103 -21 0 -25 22 -33 182 -6 117 -6 118 20 143 30 31 49 28 53 -8 4 -32 22
-35 40 -6 10 16 19 19 43 14 24 -5 29 -3 29 12 0 23 -53 83 -73 83 -8 0 -20 7
-28 16 -20 25 5 33 83 27 78 -7 86 2 33 38 -43 29 -44 47 -5 84 17 16 30 32
30 37 0 9 -59 -20 -97 -48 -22 -15 -23 -15 -31 7 -9 22 -9 23 -19 4 -6 -11
-16 -40 -23 -64 -11 -42 -47 -84 -62 -74 -13 7 -9 98 6 140 8 22 35 77 61 121
26 44 44 85 41 91 -11 18 -36 0 -57 -40 -11 -22 -24 -39 -29 -39 -19 0 -30 40
-30 105 0 36 -6 76 -12 88 -11 19 -14 3 -18 -107 -3 -83 -9 -131 -16 -133 -7
-2 -29 20 -50 49 -48 65 -59 43 -18 -35 68 -126 68 -129 69 -211 0 -52 -4 -80
-12 -83 -15 -6 -53 81 -53 123 0 68 -31 106 -42 50 -5 -29 -22 -30 -56 -1 -63
53 -67 28 -12 -78 40 -76 41 -77 20 -94 -11 -10 -20 -26 -20 -36 0 -23 26 -33
45 -17 22 19 35 3 35 -46 0 -48 -17 -57 -54 -29 -46 35 -49 -2 -6 -59 34 -44
37 -56 15 -56 -8 0 -20 -9 -27 -20 -19 -30 -37 -25 -112 35 -38 30 -72 55 -77
55 -30 0 -6 -70 31 -90 28 -15 25 -29 -10 -41 -40 -15 -38 -33 8 -57 20 -10
37 -25 37 -33 1 -8 9 -27 19 -42 22 -32 22 -32 -29 -49 -32 -11 -40 -18 -40
-38 0 -23 3 -25 43 -22 31 3 49 -2 63 -14 18 -16 21 -16 54 2 26 14 37 16 46
7 9 -9 6 -18 -10 -39 -11 -15 -21 -31 -21 -35 0 -13 34 -11 47 2 16 16 35 1
28 -22 -4 -10 -4 -23 -1 -28 9 -13 66 17 66 35 0 24 30 15 40 -12 15 -39 12
-72 -7 -82 -10 -5 -48 -13 -84 -16 -75 -8 -108 2 -179 53 -64 46 -97 40 -45
-9 29 -27 32 -40 8 -40 -29 0 -97 38 -152 85 -55 47 -76 50 -68 9 6 -31 -7
-40 -72 -50 -30 -5 -56 -14 -58 -21 -8 -24 58 -53 120 -53 31 0 57 -3 57 -7 0
-4 -12 -19 -26 -34 -26 -27 -28 -59 -4 -59 6 0 30 18 54 40 41 38 76 52 76 30
0 -6 -12 -21 -26 -33 -24 -21 -25 -24 -13 -64 l13 -41 56 31 c30 17 62 36 71
44 8 7 19 13 22 13 17 0 4 -26 -34 -67 -29 -32 -38 -48 -31 -55 8 -8 18 -6 36
6 33 21 36 20 36 -6 1 -22 2 -22 25 7 14 17 32 29 41 27 8 -2 21 1 27 6 7 5
28 12 48 16 39 7 72 36 88 79 12 32 27 35 36 7 11 -33 -39 -105 -118 -170 -40
-33 -86 -67 -103 -76 -31 -17 -32 -17 -90 20 -72 44 -87 46 -74 10 6 -14 10
-30 10 -35 0 -12 -45 -1 -92 23 -38 18 -38 18 -38 -1 0 -29 -31 -43 -68 -30
-22 7 -37 7 -51 -1 -28 -14 -26 -28 4 -40 22 -8 24 -13 15 -29 -14 -28 -13
-29 18 -33 19 -2 28 -9 30 -25 2 -15 10 -23 24 -23 12 0 22 -8 25 -21 4 -14
11 -19 25 -16 27 8 58 -27 58 -63 0 -37 -23 -49 -49 -26 -22 20 -60 20 -85 1
-17 -13 -17 -15 -2 -37 20 -28 21 -82 2 -98 -12 -9 -23 -4 -59 29 -24 23 -47
41 -50 41 -3 0 -3 -16 0 -36 l6 -37 -69 8 -69 7 23 -25 c13 -14 35 -28 48 -31
34 -9 30 -27 -14 -55 -46 -31 -142 -42 -142 -18 0 9 5 19 10 22 9 6 15 65 6
65 -2 0 -24 -11 -47 -25 -76 -43 -155 -27 -276 57 -103 70 -159 140 -101 125
12 -4 28 -1 36 5 10 9 15 9 21 0 10 -16 79 -51 86 -44 3 3 5 16 5 29 0 29 5
29 42 -2 36 -30 48 -31 55 -5 7 26 20 26 28 0 4 -11 18 -28 31 -37 24 -16 26
-15 50 10 16 18 24 38 24 63 0 35 1 36 30 31 33 -7 32 -9 31 86 -1 26 3 47 7
47 5 0 19 -11 32 -25 14 -15 33 -25 45 -23 16 2 19 9 17 35 -3 25 1 33 20 38
25 8 68 43 68 56 0 4 -24 9 -52 11 -43 2 -53 6 -52 21 2 23 -5 21 -46 -13 -19
-17 -38 -30 -42 -30 -11 0 -31 50 -30 73 1 25 -6 22 -52 -28 -34 -36 -49 -45
-77 -45 -38 0 -135 43 -189 84 -41 31 -81 93 -73 112 9 25 50 16 73 -16 26
-37 40 -38 40 -5 0 34 13 31 44 -10 39 -50 54 -46 58 17 4 67 24 74 72 24 18
-20 41 -36 50 -36 22 0 21 5 -16 56 -23 33 -29 47 -20 56 8 8 22 1 53 -26 23
-20 49 -36 58 -36 12 0 12 3 3 12 -20 20 -13 38 24 60 25 15 32 24 25 31 -23
23 -11 37 28 37 41 0 67 20 57 45 -3 9 -18 15 -36 15 -39 0 -70 16 -70 35 0
22 -17 18 -77 -15 -62 -35 -73 -37 -73 -11 0 10 -7 24 -15 31 -8 7 -15 21 -15
31 0 15 -4 17 -24 9 -27 -10 -36 -5 -36 22 0 24 -2 23 -41 -13 -48 -45 -86
-62 -124 -55 -41 8 -74 41 -57 58 7 7 12 22 12 35 0 20 -5 23 -44 23 -61 0
-89 26 -109 97 -14 53 -21 99 -18 131 1 6 8 12 16 12 11 0 15 -12 15 -47 0
-49 31 -133 48 -133 12 0 22 24 22 50 0 34 20 32 35 -3 29 -71 78 -93 68 -32
-11 67 37 88 62 28 25 -60 75 -105 75 -68 0 9 7 30 16 47 l16 30 22 -21 c23
-22 23 -22 67 -3 24 11 51 27 58 36 12 15 10 21 -22 50 -21 19 -37 38 -37 43
0 6 -19 15 -42 22 -62 19 -80 37 -72 78 6 30 4 33 -19 33 -13 0 -36 -9 -50
-20 -29 -23 -67 -26 -67 -6 0 7 11 21 25 30 19 12 24 22 20 39 -5 19 0 26 29
40 36 16 48 44 24 52 -7 2 -32 9 -55 15 -35 9 -43 15 -43 34 0 13 8 33 18 45
15 19 19 20 36 8 18 -13 23 -11 55 23 20 20 43 39 51 42 24 8 -1 41 -38 50
-47 13 -40 56 21 125 26 29 16 53 -22 53 -40 0 -45 12 -23 57 31 61 36 83 18
83 -9 0 -16 -3 -16 -7 0 -5 -16 -26 -35 -48 l-35 -40 -20 25 c-25 32 -31 24
-65 -87 -19 -59 -39 -99 -76 -146 -53 -70 -72 -83 -87 -64 -9 11 -23 164 -25
274 -1 60 21 93 60 93 19 0 23 -5 23 -30 0 -34 14 -39 30 -10 8 14 21 20 45
20 20 0 35 5 35 12 0 21 -53 80 -81 90 -19 6 -29 17 -29 30 0 18 6 19 76 16
45 -2 78 1 80 7 2 6 -14 23 -36 39 -22 17 -40 33 -40 37 0 4 16 26 35 49 20
24 34 45 31 47 -7 7 -59 -23 -80 -46 -27 -29 -46 -27 -47 7 0 24 -3 21 -25
-23 -13 -27 -24 -59 -24 -71 0 -11 -11 -31 -25 -44 -71 -66 -55 89 24 242 28
53 51 104 51 112 0 32 -31 15 -52 -29 -36 -74 -52 -58 -58 57 -7 126 -25 148
-33 42 -4 -42 -7 -106 -7 -141 0 -35 -4 -63 -10 -63 -5 0 -26 25 -46 55 -69
103 -69 50 -1 -75 40 -73 41 -77 42 -172 0 -58 -4 -98 -10 -99 -19 -1 -42 62
-50 135 -4 33 -9 65 -12 73 -9 22 -21 15 -25 -14 -4 -37 -28 -40 -66 -8 -16
14 -33 25 -36 25 -16 0 -3 -50 29 -111 41 -79 42 -90 15 -114 -24 -22 -25 -38
-5 -55 13 -10 19 -9 36 6 17 16 22 16 29 4 6 -8 10 -32 10 -53 0 -45 -19 -56
-55 -33 -13 9 -27 16 -30 16 -14 0 -2 -50 20 -80 28 -38 32 -60 10 -60 -8 0
-19 -9 -25 -20 -17 -32 -37 -24 -112 40 -38 33 -73 60 -79 60 -20 0 -7 -51 21
-83 38 -43 38 -52 -1 -66 -35 -12 -37 -43 -4 -49 27 -5 55 -31 55 -51 0 -9 7
-27 16 -39 21 -31 14 -44 -32 -57 -27 -7 -40 -17 -42 -31 -5 -31 20 -47 54
-34 23 9 32 8 55 -10 34 -24 43 -25 59 -5 15 18 50 20 50 4 0 -7 -9 -26 -20
-44 -17 -27 -18 -34 -6 -38 8 -3 22 1 33 8 27 22 33 18 33 -20 0 -24 5 -35 15
-35 17 0 55 35 55 50 0 16 19 11 28 -7 6 -10 13 -32 16 -49 10 -47 -10 -61
-100 -69 -85 -8 -104 -3 -169 50 -66 55 -104 41 -48 -17 26 -28 26 -28 4 -28
-34 0 -99 37 -152 87 -52 48 -80 52 -72 10 6 -30 -6 -39 -72 -52 -39 -8 -50
-14 -50 -29 0 -30 61 -58 118 -53 26 2 50 1 52 -3 2 -4 -7 -18 -20 -30 -14
-13 -25 -34 -25 -47 0 -36 35 -29 71 16 36 45 50 53 70 40 11 -8 7 -16 -20
-39 -31 -26 -33 -32 -23 -52 6 -13 13 -33 17 -45 l6 -22 35 22 c20 12 50 34
69 50 65 54 76 23 15 -46 -22 -25 -40 -50 -40 -56 0 -16 26 -13 40 4 17 21 29
19 39 -7 9 -23 9 -23 21 5 12 25 22 32 44 28 4 -1 13 2 20 7 6 5 27 12 47 16
41 7 84 48 94 89 4 15 11 30 16 33 12 7 22 -42 14 -73 -11 -47 -207 -233 -244
-233 -7 0 -39 18 -72 41 -65 44 -79 44 -61 4 7 -14 12 -30 12 -36 0 -12 -45
-2 -92 21 l-36 19 -6 -24 c-8 -30 -31 -38 -74 -24 -31 10 -37 9 -49 -7 -18
-25 -16 -35 8 -41 16 -5 19 -11 14 -34 -5 -23 -3 -28 17 -31 15 -2 24 -11 26
-25 2 -14 11 -23 25 -25 14 -2 23 -11 25 -26 3 -19 8 -23 25 -18 26 6 40 -1
56 -31 15 -28 14 -45 -3 -68 -13 -18 -14 -18 -41 3 -32 25 -41 27 -78 10 -29
-14 -33 -23 -16 -33 31 -20 32 -111 1 -123 -10 -3 -25 6 -41 24 -14 16 -35 36
-45 44 -18 14 -19 13 -12 -23 9 -47 -5 -54 -74 -37 -28 7 -54 10 -57 6 -10 -9
18 -36 59 -57 33 -17 39 -24 36 -47 -3 -23 1 -27 25 -30 16 -2 34 -14 43 -28
9 -13 25 -24 35 -24 10 0 24 -9 32 -21 14 -20 16 -20 25 -3 10 18 11 18 32 -1
13 -11 31 -38 42 -60 38 -79 53 -100 85 -129 32 -28 34 -28 53 -11 17 16 20
16 20 2 0 -23 -53 -63 -117 -87 -71 -27 -154 -22 -190 12 l-23 21 -49 -26
c-27 -15 -55 -27 -62 -27 -8 0 -22 17 -32 38 -16 34 -22 38 -48 34 -25 -4 -29
-1 -29 19 l0 22 -22 -20 c-63 -58 -121 -75 -173 -51 -26 12 -27 17 -14 68 3
12 -7 16 -46 18 -34 2 -57 10 -72 24 -43 40 -72 178 -38 178 10 0 15 -10 15
-32 0 -42 36 -121 52 -116 7 3 16 19 21 37 7 27 10 31 22 21 8 -7 15 -18 15
-25 0 -17 33 -45 53 -45 14 0 16 6 11 26 -5 18 -1 29 12 39 27 21 29 20 58
-29 34 -59 76 -73 76 -27 0 10 7 24 15 31 13 10 19 10 33 -4 17 -15 22 -15 65
0 59 20 79 42 52 57 -10 5 -28 20 -40 33 -11 12 -39 27 -62 33 -53 15 -72 33
-66 65 5 22 2 26 -20 26 -14 0 -41 -9 -59 -20 -24 -13 -38 -16 -48 -9 -13 8
-10 13 13 32 18 15 26 29 22 40 -5 12 3 20 30 31 46 20 41 39 -13 48 -68 11
-78 26 -44 68 16 20 21 21 42 10 19 -10 24 -10 32 3 4 9 24 25 44 37 41 26 40
41 -5 52 -46 13 -48 32 -7 82 20 25 36 49 36 55 0 6 -15 11 -34 11 -19 0 -37
4 -40 9 -3 5 5 29 19 53 14 23 25 46 25 51 0 17 -23 5 -51 -28 -34 -38 -50
-43 -69 -20 -7 8 -16 15 -20 15 -8 0 -44 -81 -54 -122 -8 -35 -112 -148 -136
-148 -10 0 -21 8 -24 18 -9 33 -17 257 -9 268 12 17 52 36 63 29 6 -3 10 -17
10 -31 0 -29 11 -31 35 -4 12 14 25 17 46 13 21 -4 29 -2 29 9 0 19 -59 74
-88 83 -46 14 -16 30 56 30 39 1 74 3 77 6 3 4 -10 17 -30 30 -42 29 -44 44
-8 81 34 36 12 38 -39 3 -45 -31 -46 -31 -57 -2 -8 20 -10 19 -30 -23 -11 -25
-21 -52 -21 -61 0 -20 -46 -53 -61 -44 -9 6 -7 28 7 107 3 15 28 63 55 108 48
79 59 110 40 110 -9 0 -36 -31 -57 -66 -10 -16 -13 -17 -28 -5 -12 10 -16 30
-16 78 0 35 -6 74 -12 86 -11 19 -14 5 -18 -95 -3 -64 -8 -120 -13 -124 -4 -4
-27 14 -52 42 -58 64 -61 35 -5 -51 26 -40 44 -82 51 -119 10 -57 5 -111 -11
-121 -13 -8 -50 69 -50 103 0 39 -20 93 -31 86 -5 -3 -9 -14 -9 -25 0 -31 -26
-33 -64 -4 -53 40 -59 11 -12 -64 40 -65 43 -82 21 -101 -21 -18 -19 -50 3
-50 10 0 23 5 29 11 18 18 33 0 33 -41 0 -47 -13 -57 -45 -36 -53 34 -61 8
-15 -49 l30 -37 -37 -25 c-19 -13 -42 -22 -50 -19 -8 3 -43 26 -77 51 -35 25
-69 45 -75 45 -21 0 -11 -30 25 -70 25 -27 32 -41 23 -44 -43 -13 -49 -17 -49
-31 0 -8 8 -15 18 -15 19 0 52 -29 52 -45 0 -5 9 -19 21 -31 26 -28 20 -40
-25 -48 -40 -8 -58 -26 -47 -45 6 -10 19 -12 45 -7 26 5 45 2 66 -11 23 -13
32 -15 42 -5 16 16 58 15 58 -2 0 -7 -7 -19 -15 -26 -8 -7 -15 -19 -15 -26 0
-16 26 -19 35 -4 14 22 35 10 35 -20 0 -16 3 -30 6 -30 14 0 51 24 66 44 17
21 17 21 33 -18 9 -21 14 -45 11 -52 -9 -23 -52 -34 -130 -34 -65 0 -77 3
-126 35 -64 40 -95 46 -85 15 5 -17 2 -20 -24 -20 -20 0 -34 7 -41 20 -6 11
-20 20 -31 20 -12 0 -35 11 -51 25 -34 28 -48 25 -48 -11 0 -31 -39 -34 -47
-3 -5 16 -11 19 -34 14 -25 -6 -29 -3 -29 14 0 27 -2 27 -56 -14 -56 -43 -83
-50 -129 -35 -39 13 -54 35 -36 53 6 6 11 19 11 29 0 15 -8 18 -44 18 -61 0
-74 7 -96 49 -21 41 -41 137 -33 158 11 28 28 5 34 -43 7 -52 33 -114 49 -114
5 0 13 14 18 32 8 32 32 51 32 25 0 -21 39 -67 57 -67 12 0 14 7 10 29 -5 24
-1 32 20 47 16 10 28 13 30 7 2 -6 17 -31 33 -57 30 -47 60 -61 60 -28 0 10 7
28 16 40 15 22 17 22 34 7 22 -20 59 -14 109 16 l33 20 -43 43 c-24 23 -57 46
-74 50 -56 14 -77 34 -70 67 6 27 4 29 -22 29 -15 0 -37 -7 -47 -15 -26 -19
-66 -19 -66 0 0 8 9 19 20 25 11 6 20 21 20 33 0 17 10 28 35 40 36 17 45 34
23 42 -7 2 -32 9 -55 15 -35 9 -43 15 -43 33 0 13 6 31 13 41 11 15 17 16 38
6 23 -10 29 -8 60 23 19 18 41 36 49 39 23 7 -3 34 -40 42 -18 3 -30 12 -30
21 0 18 24 59 53 92 24 27 15 43 -23 43 -41 0 -44 13 -16 68 23 45 24 62 6 62
-4 0 -20 -18 -35 -40 -31 -45 -40 -48 -68 -23 -18 17 -19 17 -33 -2 -8 -11
-23 -49 -34 -85 -16 -52 -32 -80 -76 -129 -77 -85 -87 -81 -97 39 -15 168 -14
196 7 219 27 30 60 24 66 -13 l5 -28 19 21 c12 13 31 21 53 21 18 0 33 4 33
10 0 18 -60 78 -86 84 -17 5 -24 12 -22 24 3 14 14 17 67 14 93 -4 102 2 52
40 -22 18 -41 35 -41 38 0 4 14 19 30 35 55 52 28 63 -38 15 -23 -16 -44 -30
-47 -30 -3 0 -5 12 -5 28 -1 26 -1 26 -16 7 -8 -11 -21 -43 -29 -70 -9 -29
-24 -56 -36 -63 -64 -40 -46 93 30 225 28 49 51 94 51 102 0 25 -35 5 -52 -29
-10 -20 -25 -35 -35 -35 -15 0 -19 13 -23 85 -3 47 -9 91 -14 99 -17 27 -26
-14 -26 -126 0 -130 -8 -139 -59 -68 -18 25 -37 45 -42 45 -16 0 -1 -38 44
-115 38 -65 41 -77 45 -157 4 -76 2 -88 -12 -88 -19 0 -42 53 -51 117 -4 26
-9 56 -12 66 -5 20 -23 23 -23 4 0 -7 -6 -21 -13 -31 -12 -17 -15 -16 -44 8
-17 14 -36 26 -42 26 -20 0 -12 -42 18 -89 44 -72 47 -91 21 -111 -15 -11 -21
-23 -17 -34 7 -18 42 -22 53 -4 10 16 34 -20 34 -53 0 -41 -20 -52 -55 -29
-50 33 -55 6 -9 -57 28 -36 30 -53 9 -53 -8 0 -19 -9 -25 -20 -6 -11 -17 -20
-24 -20 -8 0 -47 25 -87 55 -40 30 -76 55 -81 55 -19 0 -6 -42 23 -75 33 -37
33 -41 -3 -59 -30 -15 -33 -33 -6 -41 32 -10 58 -35 58 -55 0 -10 7 -23 15
-30 25 -21 17 -39 -20 -46 -40 -7 -60 -27 -51 -50 5 -13 15 -15 48 -10 34 6
45 3 64 -15 22 -21 25 -21 42 -6 21 20 62 23 62 5 0 -6 -10 -22 -22 -35 -27
-28 -17 -41 22 -26 34 13 40 9 40 -29 0 -36 11 -35 49 3 36 35 46 32 61 -19 9
-33 8 -39 -11 -54 -13 -11 -41 -19 -73 -20 -96 -3 -120 2 -180 43 -33 21 -63
39 -68 39 -15 0 -8 -27 12 -45 11 -10 20 -22 20 -27 0 -27 -91 14 -163 74 -50
42 -80 45 -70 8 7 -27 -7 -37 -69 -45 -58 -8 -67 -20 -39 -48 15 -16 37 -22
86 -25 36 -2 65 -8 65 -12 0 -4 -9 -15 -20 -25 -24 -22 -26 -55 -4 -55 9 0 37
18 61 40 40 37 63 44 63 19 0 -6 -12 -20 -26 -32 -24 -21 -25 -23 -10 -58 l15
-37 58 30 c32 16 65 36 75 45 12 10 18 11 23 3 4 -7 -10 -29 -34 -54 -54 -55
-54 -87 0 -53 17 10 22 9 33 -6 13 -16 15 -16 30 8 10 15 26 25 41 25 13 0 27
5 30 10 3 6 19 10 34 10 37 0 78 33 96 77 8 19 19 32 25 28 19 -12 10 -62 -19
-102 -31 -42 -196 -173 -219 -173 -8 0 -41 16 -73 37 -63 38 -75 39 -63 1 4
-13 6 -25 5 -28 -3 -9 -55 2 -85 17 -24 12 -30 13 -37 1 -5 -7 -9 -16 -9 -19
0 -15 -35 -19 -68 -8 -32 11 -37 10 -53 -10 -18 -21 -49 -29 -49 -11 0 5 9 24
20 42 23 39 25 48 7 48 -7 0 -23 -13 -35 -30 -25 -34 -47 -38 -74 -14 -17 16
-20 12 -56 -68 -30 -64 -51 -94 -88 -126 -82 -70 -88 -64 -99 108 -7 105 1
128 45 132 19 2 26 -2 28 -19 4 -27 10 -28 36 -8 11 8 32 15 48 15 15 0 28 5
28 10 0 17 -37 49 -76 65 -29 12 -34 18 -25 29 8 10 29 12 81 8 39 -2 70 -2
70 1 0 3 -16 15 -35 27 -43 27 -44 42 -3 71 45 33 17 36 -39 4 -42 -23 -49
-24 -59 -10 -14 19 -26 6 -43 -47 -7 -20 -23 -44 -37 -53 -22 -14 -25 -14 -30
0 -17 42 4 108 60 189 31 45 56 85 56 89 0 19 -31 3 -59 -30 -30 -37 -31 -37
-46 -19 -9 12 -15 41 -15 72 0 56 -7 84 -21 84 -5 0 -9 -45 -9 -99 0 -62 -4
-102 -11 -107 -6 -3 -31 13 -55 37 -57 56 -57 33 1 -55 24 -38 47 -83 50 -100
9 -46 2 -109 -12 -113 -14 -5 -53 67 -53 99 0 39 -12 68 -26 68 -8 0 -14 -9
-14 -20 0 -26 -34 -26 -67 0 -24 19 -43 19 -43 1 0 -5 16 -32 35 -60 39 -56
43 -78 18 -96 -22 -16 -10 -50 15 -40 37 15 47 11 50 -24 5 -46 -9 -56 -46
-37 -38 19 -42 20 -42 3 0 -7 14 -26 30 -42 36 -34 37 -42 8 -55 -13 -6 -31
-15 -40 -22 -14 -10 -28 -4 -87 35 -39 26 -75 47 -81 47 -22 0 -8 -41 20 -62
17 -12 30 -25 30 -29 0 -4 -13 -12 -30 -18 -31 -10 -41 -31 -15 -31 21 0 65
-29 65 -43 0 -6 7 -18 16 -28 21 -23 12 -35 -31 -43 -66 -13 -55 -60 11 -49
22 4 42 0 58 -10 20 -14 26 -14 42 -2 22 16 50 19 58 6 3 -4 -3 -19 -14 -31
-11 -13 -20 -25 -20 -27 0 -2 17 -3 37 -1 32 3 38 0 38 -17 0 -27 44 -22 67 8
21 27 36 15 45 -36 5 -34 4 -36 -33 -46 -63 -18 -154 -14 -194 8 -77 43 -144
71 -167 71 -19 0 -24 5 -23 23 3 38 1 40 -27 21 -15 -9 -44 -21 -63 -25 -19
-3 -42 -9 -50 -13 -8 -3 -22 -1 -30 4 -12 8 -13 13 -2 30 14 23 16 70 3 70 -6
0 -13 -5 -16 -10 -4 -6 -25 -20 -48 -31 -37 -19 -46 -20 -91 -10 -67 16 -163
70 -230 132 -61 55 -70 74 -32 67 16 -3 27 0 31 10 5 13 7 13 23 0 17 -16 76
-48 87 -48 3 0 5 11 5 25 0 32 14 32 52 0 30 -26 48 -25 48 1 0 21 21 17 27
-5 3 -11 18 -25 34 -31 26 -11 31 -10 49 11 10 13 19 38 20 56 0 37 12 48 39
34 16 -9 19 -6 24 31 3 23 3 55 0 70 -7 34 15 38 42 8 10 -11 28 -20 41 -20
18 0 22 5 20 32 -1 24 5 35 21 43 28 15 63 45 63 56 0 4 -24 9 -52 11 -43 2
-53 6 -52 21 2 23 -3 22 -43 -13 -18 -16 -38 -30 -43 -30 -14 0 -39 60 -33 78
4 9 -19 -7 -51 -37 -51 -47 -61 -53 -89 -47 -90 17 -235 119 -249 174 -13 48
46 53 76 7 21 -32 36 -32 36 0 0 34 10 31 43 -10 40 -50 55 -46 59 17 4 67 23
73 70 22 20 -20 42 -35 51 -33 14 3 12 12 -15 52 -24 38 -28 51 -19 60 10 9
16 8 29 -8 17 -20 66 -55 77 -55 3 0 3 11 -1 25 -5 20 -1 28 25 42 31 18 39
37 21 48 -19 12 1 25 39 25 41 0 67 20 57 45 -3 9 -18 15 -41 15 -26 0 -43 7
-59 25 -26 28 -43 26 -101 -14 -16 -12 -35 -21 -41 -21 -10 0 -44 67 -44 88 0
8 -7 9 -25 2 -22 -9 -27 -7 -35 16 l-10 26 -51 -46 c-56 -51 -88 -57 -140 -30
-25 12 -30 20 -24 37 17 56 13 62 -44 67 -62 7 -74 19 -97 97 -21 73 -23 138
-4 138 11 0 17 -16 21 -60 6 -63 33 -130 49 -120 5 3 12 21 16 40 9 51 19 51
45 -3 14 -27 32 -49 43 -51 16 -3 18 2 13 32 -9 54 44 94 58 45 11 -36 56 -98
71 -98 8 0 14 10 14 23 0 12 7 33 16 46 l16 22 23 -21 23 -21 50 25 c28 14 54
31 57 37 4 6 -9 25 -29 44 -20 18 -36 37 -36 43 0 5 -19 15 -43 20 -53 14 -77
39 -74 77 2 24 -2 31 -21 33 -12 2 -34 -6 -48 -17 -28 -22 -59 -27 -69 -12 -3
5 6 18 20 29 15 12 25 30 25 46 0 18 7 29 23 35 28 11 51 37 43 50 -3 5 -24
12 -45 16 -22 3 -47 12 -57 20 -18 12 -18 15 -1 49 19 41 24 42 55 20 13 -9
22 -11 22 -4 0 14 57 70 71 70 6 0 9 10 7 22 -2 14 -14 25 -37 33 -19 6 -37
17 -39 23 -4 13 30 75 61 109 25 28 15 43 -29 43 -41 0 -45 20 -14 80 39 77
21 94 -28 25 -35 -50 -53 -56 -74 -23 l-15 22 -11 -20 c-6 -12 -20 -54 -31
-94 -28 -101 -110 -220 -152 -220 -22 0 -26 21 -34 197 l-7 132 26 26 c33 33
50 28 54 -13 4 -38 15 -40 36 -10 11 16 25 22 46 20 22 -2 30 2 30 14 0 27
-41 75 -76 90 -33 14 -46 43 -21 45 6 1 42 1 80 -1 77 -2 83 6 32 47 -19 15
-35 34 -35 42 0 7 14 29 31 49 43 48 21 53 -40 9 -51 -37 -61 -37 -61 -3 -1
19 -2 19 -14 -4 -8 -14 -20 -45 -27 -70 -12 -45 -44 -90 -62 -90 -6 0 -8 32
-5 78 4 70 10 89 61 192 38 74 54 117 48 123 -14 14 -34 -5 -56 -53 -32 -72
-52 -46 -57 77 -2 56 -8 97 -15 105 -10 10 -13 -7 -13 -84 0 -110 -9 -188 -21
-188 -5 0 -26 24 -47 52 -31 44 -37 49 -40 31 -2 -12 17 -61 42 -110 36 -71
47 -104 52 -160 7 -76 0 -127 -18 -121 -15 5 -48 97 -48 133 0 43 -19 107 -31
100 -5 -4 -9 -17 -9 -31 0 -36 -27 -41 -59 -10 -60 57 -68 19 -16 -78 38 -73
43 -97 20 -116 -17 -14 -20 -56 -4 -65 5 -4 19 1 29 10 27 25 40 10 40 -46 0
-41 -3 -49 -19 -49 -10 0 -24 7 -31 15 -7 8 -19 15 -26 15 -23 0 -16 -34 16
-78 33 -47 37 -62 15 -62 -8 0 -20 -9 -27 -20 -19 -30 -43 -24 -96 22 -92 82
-92 82 -103 71 -13 -13 5 -60 38 -95 15 -15 25 -29 22 -31 -2 -2 -17 -8 -32
-15 -32 -14 -34 -44 -3 -50 28 -6 57 -37 51 -54 -3 -8 3 -23 15 -33 29 -27 25
-42 -17 -55 -50 -16 -57 -24 -49 -55 6 -24 10 -26 34 -20 41 11 63 8 77 -12
12 -16 15 -16 49 2 50 27 68 9 36 -35 -28 -39 -15 -60 22 -36 29 19 38 13 38
-27 0 -22 4 -28 16 -23 9 3 20 6 25 6 5 0 14 11 19 25 12 32 28 32 40 -1 14
-36 12 -80 -4 -93 -8 -7 -52 -14 -98 -18 l-83 -5 -61 46 c-57 43 -94 58 -94
38 0 -5 11 -19 25 -32 32 -30 33 -54 3 -45 -42 13 -104 53 -143 94 -49 50 -80
55 -72 12 8 -37 -7 -49 -66 -57 -62 -9 -74 -24 -42 -54 20 -19 40 -25 90 -28
36 -2 65 -7 65 -9 0 -3 -11 -18 -25 -35 -29 -34 -32 -53 -9 -62 12 -4 30 8 58
39 42 45 76 59 76 30 0 -8 -11 -22 -25 -31 -27 -17 -31 -34 -16 -62 5 -9 12
-25 15 -35 6 -18 7 -17 32 2 15 12 32 21 39 21 7 0 26 14 43 31 36 37 59 31
38 -9 -8 -15 -26 -38 -40 -51 -43 -40 -27 -70 19 -36 17 14 20 13 31 -7 l12
-23 12 27 c7 15 23 28 39 31 105 21 142 45 161 103 19 56 47 38 35 -22 -7 -40
-115 -160 -197 -220 l-49 -36 -57 39 c-86 60 -86 60 -80 32 3 -13 9 -32 13
-42 7 -17 4 -18 -31 -11 -22 4 -48 13 -59 20 -28 20 -43 17 -47 -8 -3 -20 -9
-23 -53 -23 -27 0 -56 -4 -62 -8 -20 -13 -15 -34 8 -40 17 -5 20 -11 14 -36
-5 -26 -3 -30 17 -33 15 -2 24 -11 26 -25 3 -17 10 -23 28 -23 19 0 24 -5 24
-24 0 -21 4 -24 32 -22 26 1 35 -4 46 -27 18 -37 8 -77 -18 -77 -11 0 -20 4
-20 10 0 17 -49 23 -80 10 -35 -14 -36 -17 -13 -43 20 -21 22 -92 4 -110 -8
-8 -22 0 -54 31 -23 23 -46 42 -51 42 -5 0 -5 -15 -2 -34 8 -44 -3 -51 -64
-36 -27 7 -55 10 -61 8 -17 -6 28 -47 64 -60 24 -9 28 -15 25 -42 -3 -29 0
-31 30 -34 20 -2 36 -10 39 -20 4 -9 28 -45 54 -80 35 -47 49 -75 54 -112 7
-50 0 -90 -15 -90 -15 0 -50 66 -50 94 0 31 -16 66 -30 66 -6 0 -10 -9 -10
-19 0 -28 -20 -31 -62 -7 -20 11 -40 18 -43 14 -8 -8 10 -44 41 -81 28 -33 30
-50 9 -67 -21 -18 -19 -34 8 -45 31 -14 29 -40 -5 -40 -14 0 -30 -3 -34 -7 -4
-4 -18 -5 -30 -2 -37 9 -43 -22 -10 -52 27 -25 35 -54 15 -54 -6 0 -37 16 -69
35 -83 51 -123 45 -60 -8 37 -32 38 -45 3 -53 -19 -5 -30 -2 -40 12 -8 12 -23
18 -38 16 -14 -2 -27 3 -32 13 -8 14 -16 12 -62 -19 -56 -38 -79 -43 -130 -25
-32 11 -41 35 -20 56 20 20 -1 33 -51 33 -41 0 -52 4 -73 30 -28 33 -54 128
-43 157 7 17 8 17 22 -1 8 -11 14 -33 14 -48 0 -36 26 -88 44 -88 7 0 16 14
19 30 8 36 24 39 37 6 9 -23 46 -56 63 -56 5 0 6 12 3 26 -12 46 45 79 59 34
8 -27 64 -82 76 -74 5 3 9 14 9 24 0 10 7 26 16 35 15 15 18 15 35 -1 16 -15
21 -15 68 1 28 9 54 21 57 26 9 16 -67 77 -111 90 -53 15 -67 27 -63 58 4 35
-23 39 -78 11 -42 -20 -64 -20 -64 1 0 5 11 15 25 21 15 7 25 19 25 33 0 15
11 27 36 38 43 21 37 34 -21 43 -56 8 -70 23 -54 58 13 27 37 34 56 15 9 -9
20 -4 43 20 17 17 38 31 47 31 27 0 8 34 -24 42 -18 5 -35 13 -38 18 -8 13 26
68 57 95 l23 19 -38 7 c-20 3 -40 9 -44 13 -4 4 4 27 17 51 13 24 21 47 17 51
-4 4 -24 -9 -45 -29 -42 -41 -53 -44 -72 -22 -19 23 -36 3 -60 -70 -16 -49
-34 -77 -76 -120 -58 -59 -91 -70 -98 -32 -3 12 -8 71 -11 130 -6 95 -4 111
11 128 9 10 28 19 41 19 18 0 23 -5 23 -25 0 -30 11 -32 35 -5 14 16 26 19 47
15 20 -5 28 -3 28 7 0 19 -49 64 -83 77 -16 6 -27 17 -24 24 3 8 26 11 80 9
43 -2 77 0 77 5 0 4 -16 19 -35 32 -42 28 -44 43 -10 69 50 40 18 45 -38 7
-39 -27 -57 -26 -57 3 0 14 -2 13 -13 -3 -8 -11 -19 -35 -26 -54 -26 -79 -71
-95 -71 -27 0 58 11 85 72 179 28 43 48 80 45 83 -12 12 -43 -7 -59 -36 -34
-60 -58 -31 -58 71 0 38 -5 61 -15 69 -13 11 -15 -1 -15 -98 0 -69 -4 -113
-11 -118 -6 -3 -30 15 -54 42 -60 67 -60 33 0 -59 45 -69 60 -122 53 -186 -2
-19 -8 -36 -15 -38 -16 -6 -53 69 -53 106 0 39 -17 84 -30 76 -5 -3 -10 -15
-10 -25 0 -31 -20 -34 -57 -7 -62 44 -68 9 -12 -67 32 -44 37 -81 14 -90 -19
-7 -19 -35 0 -42 8 -4 22 -1 30 6 22 18 35 3 35 -42 0 -43 0 -43 -67 -23 -32
10 -29 -9 7 -55 33 -42 36 -50 18 -50 -6 0 -22 -10 -35 -21 l-22 -22 -79 52
c-71 46 -102 60 -102 46 0 -16 31 -63 45 -68 26 -11 17 -25 -40 -57 -54 -31
-75 -32 -75 -4 0 8 -7 26 -16 39 -13 19 -22 23 -41 19 -19 -5 -25 -2 -30 15
-5 20 -6 20 -42 -8 -54 -43 -85 -54 -124 -47 -48 9 -63 29 -48 62 18 40 14 44
-39 44 -79 0 -110 43 -127 171 -4 32 -2 49 7 54 18 11 30 -13 30 -60 0 -41 27
-107 45 -109 5 -1 13 16 18 37 11 44 24 47 38 10 25 -65 75 -88 64 -29 -6 28
-3 36 13 45 31 17 37 14 55 -28 29 -65 77 -92 77 -42 0 9 6 26 14 36 14 19 15
19 35 1 20 -18 23 -18 65 -2 68 26 76 42 39 76 -17 16 -33 34 -35 39 -1 5 -28
18 -58 28 -53 17 -55 19 -54 53 0 19 -5 38 -10 42 -14 9 -46 0 -67 -19 -9 -8
-28 -15 -42 -16 -14 -1 -35 -14 -47 -29 -27 -35 -48 -36 -56 -3 -5 20 -10 23
-35 18 -32 -6 -79 18 -79 41 0 10 12 12 48 8 26 -2 53 -9 59 -14 7 -6 27 -11
44 -12 37 -2 92 43 87 71 -2 11 7 22 23 30 29 14 55 41 47 48 -3 3 -26 9 -52
14 -63 12 -72 22 -56 60 13 32 37 40 57 20 9 -9 20 -2 43 25 18 20 38 36 46
36 8 0 14 9 14 20 0 15 -9 22 -30 26 -40 9 -58 30 -42 52 7 10 16 26 21 37 5
11 18 29 30 39 30 27 27 33 -19 41 -46 8 -49 20 -20 67 21 35 26 68 10 68 -5
0 -22 -18 -36 -40 -28 -43 -57 -51 -73 -22 -9 15 -12 15 -25 2 -8 -8 -24 -46
-35 -84 -28 -92 -113 -206 -153 -206 -21 0 -25 22 -33 187 -6 114 -5 123 14
142 32 32 61 28 61 -9 0 -35 10 -38 36 -9 12 14 25 18 41 14 59 -15 21 73 -44
100 -57 24 -37 40 45 37 39 -2 73 2 76 7 4 5 -9 22 -29 38 -19 15 -35 32 -35
37 0 4 14 24 31 43 16 19 28 38 25 41 -3 3 -29 -9 -57 -27 -52 -32 -69 -33
-69 -3 -1 24 -27 -22 -41 -73 -12 -45 -35 -75 -57 -75 -12 0 -14 12 -10 68 4
60 13 83 63 176 31 59 54 110 51 114 -12 11 -40 -13 -55 -46 -33 -72 -61 -36
-61 77 0 44 -5 74 -15 87 -13 17 -14 5 -15 -113 0 -140 -9 -168 -39 -122 -9
13 -28 37 -43 54 -44 48 -36 6 17 -91 36 -65 47 -97 52 -148 6 -67 -1 -116
-17 -116 -15 0 -50 90 -50 131 0 46 -16 92 -30 84 -5 -3 -10 -17 -10 -31 0
-32 -23 -31 -62 1 -59 50 -64 21 -13 -72 39 -70 43 -94 20 -113 -20 -16 -16
-56 5 -53 8 1 25 5 38 9 21 6 22 3 22 -39 0 -54 -12 -65 -45 -43 -53 35 -60
10 -15 -53 30 -40 32 -61 7 -61 -7 0 -18 -9 -25 -20 -7 -11 -18 -20 -25 -20
-6 0 -43 25 -80 55 -60 48 -97 67 -97 50 0 -21 32 -75 50 -85 26 -14 21 -33
-11 -40 -29 -7 -33 -43 -5 -48 22 -5 51 -30 51 -46 1 -6 9 -24 19 -39 22 -32
22 -32 -29 -49 -32 -11 -40 -18 -40 -38 0 -23 3 -25 43 -22 31 3 49 -2 63 -14
18 -16 21 -16 54 2 26 14 37 16 46 7 9 -9 6 -18 -10 -39 -11 -15 -21 -31 -21
-35 0 -13 34 -11 47 2 16 16 35 1 28 -22 -4 -10 -4 -23 -1 -28 9 -14 66 18 66
35 0 9 7 14 17 12 12 -2 21 -18 27 -47 12 -55 -1 -66 -88 -75 -80 -9 -109 -2
-175 46 -74 52 -112 51 -56 -2 30 -28 32 -40 5 -40 -31 0 -89 33 -148 84 -56
48 -77 51 -69 10 6 -31 -7 -40 -72 -50 -30 -5 -56 -14 -58 -21 -8 -24 58 -53
120 -53 31 0 57 -4 57 -8 0 -5 -11 -19 -25 -32 -29 -27 -32 -48 -9 -57 10 -4
30 9 58 36 41 41 76 53 76 28 0 -7 -14 -23 -30 -36 -29 -21 -30 -23 -15 -44 8
-12 15 -29 15 -39 0 -20 15 -24 26 -7 3 6 25 19 48 28 23 10 47 26 55 35 17
20 31 21 31 1 0 -9 -18 -34 -41 -56 -38 -37 -44 -59 -15 -59 8 0 19 7 26 15
18 21 30 19 30 -7 1 -22 1 -22 23 5 13 15 32 27 44 27 12 0 25 4 28 10 3 6 19
10 34 10 36 0 80 34 97 77 16 37 30 42 39 14 14 -44 -41 -115 -159 -205 -40
-31 -80 -56 -90 -56 -9 0 -40 16 -69 35 -63 43 -80 45 -67 9 6 -14 10 -29 10
-34 0 -12 -59 -1 -87 16 -31 19 -43 17 -43 -6 0 -25 -42 -37 -77 -21 -19 9
-29 9 -39 0 -21 -18 -17 -49 6 -49 22 0 25 -7 10 -30 -7 -11 -4 -16 13 -20 12
-3 26 -15 32 -27 5 -12 19 -23 30 -25 12 -2 21 -12 23 -24 2 -16 8 -20 23 -17
42 11 79 -63 48 -94 -9 -9 -19 -6 -40 9 -27 20 -56 20 -88 -1 -11 -7 -11 -13
3 -32 25 -36 19 -109 -8 -109 -7 0 -27 16 -46 35 -43 44 -62 46 -54 5 8 -38
-7 -44 -71 -30 -26 6 -50 8 -53 5 -8 -8 16 -30 58 -53 28 -15 34 -24 32 -45
-3 -24 0 -27 27 -27 17 0 35 -8 43 -18 7 -9 25 -23 41 -29 15 -7 27 -17 27
-23 0 -6 7 -6 20 2 16 10 23 9 45 -12 14 -13 25 -28 25 -34 0 -19 60 -100 94
-128 25 -20 36 -24 44 -16 7 7 15 8 19 4 13 -13 -55 -62 -110 -80 -97 -31
-132 -32 -177 -2 -22 14 -42 26 -44 26 -3 0 -6 -12 -8 -26 -4 -39 -29 -51 -74
-35 -54 20 -67 0 -27 -41 17 -18 33 -44 35 -58 2 -17 10 -26 25 -28 16 -2 25
-13 31 -35 9 -33 26 -39 65 -22 15 6 18 4 17 -11 -4 -38 0 -44 35 -44 29 0 35
-4 35 -21 0 -46 -129 -68 -181 -30 -35 26 -35 26 -42 2 -4 -16 -15 -20 -53
-23 l-49 -3 33 -20 c21 -12 36 -31 39 -48 7 -33 16 -40 57 -41 24 -1 31 -6 36
-26 3 -14 12 -25 20 -25 8 0 19 -10 25 -22 5 -12 20 -25 34 -28 21 -5 31 1 59
34 47 57 67 66 98 46 34 -22 31 -45 -5 -45 -39 0 -45 -12 -26 -57 16 -38 14
-63 -6 -63 -6 0 -25 -10 -42 -22 -47 -34 -95 -58 -114 -58 -10 0 -52 -7 -94
-16 -71 -16 -78 -19 -83 -45 -4 -22 -13 -30 -43 -38 -21 -6 -48 -11 -60 -11
-13 0 -23 -4 -23 -9 0 -15 49 -49 80 -56 32 -7 36 -16 20 -45 -8 -15 -6 -20 9
-25 11 -3 22 -14 26 -23 4 -14 16 -18 57 -17 47 0 52 -2 58 -25 l7 -25 13 28
c15 31 33 31 38 -1 4 -24 38 -38 71 -27 11 3 25 21 31 40 13 39 24 44 39 17
10 -16 12 -16 25 1 17 21 25 22 41 0 11 -14 13 -13 19 11 6 25 9 26 49 20 55
-9 64 -18 44 -48 -14 -20 -57 -46 -137 -80 -8 -4 -26 -13 -40 -21 -14 -8 -42
-15 -62 -15 -21 0 -38 -4 -38 -8 0 -16 36 -42 57 -42 31 0 53 -10 53 -25 0
-36 -60 -49 -305 -65 -93 -7 -188 -18 -210 -26 -22 -7 -48 -14 -57 -14 -10 0
-18 -4 -18 -9 0 -14 41 -41 63 -41 33 0 31 -30 -4 -66 l-33 -34 26 0 c15 0 30
-4 33 -10 3 -5 13 -10 22 -10 9 0 25 -7 35 -17 17 -15 20 -15 42 6 33 31 51
19 31 -20 -15 -27 -14 -29 4 -29 11 0 23 4 26 10 11 18 31 11 43 -15 14 -31
27 -31 64 0 38 32 50 24 42 -26 -8 -47 10 -53 46 -14 31 32 40 32 40 -4 0 -22
6 -30 25 -35 14 -4 36 -4 49 0 18 4 27 1 35 -14 7 -13 23 -22 44 -24 55 -5 38
-30 -53 -75 -52 -25 -119 -49 -171 -59 l-87 -18 -42 28 c-40 26 -67 29 -42 4
7 -7 12 -16 12 -21 0 -13 -155 2 -204 19 -21 8 -46 14 -55 14 -23 -1 47 -58
83 -68 39 -11 44 -30 9 -34 -16 -2 -29 -10 -31 -20 -2 -12 7 -18 38 -23 40 -7
42 -8 36 -37 -5 -25 -3 -29 11 -24 11 5 23 0 33 -14 13 -17 20 -19 50 -10 54
15 69 13 63 -10 -4 -14 0 -20 10 -20 9 0 20 -8 26 -17 9 -16 11 -16 32 2 l22
20 -6 -30 c-3 -16 -9 -38 -12 -47 -11 -28 28 -23 64 8 28 23 32 24 38 8 13
-36 -28 -87 -98 -121 -113 -55 -148 -61 -221 -35 -35 12 -75 22 -91 22 -24 0
-27 -3 -21 -25 7 -30 0 -31 -72 -8 -30 9 -57 13 -61 9 -4 -3 1 -20 10 -35 22
-38 22 -55 0 -46 -33 12 -105 23 -124 18 -16 -4 -17 -8 -8 -20 17 -20 76 -43
110 -43 36 0 36 -12 4 -54 -30 -39 -31 -53 -6 -61 12 -3 21 -19 25 -40 4 -19
12 -35 17 -35 6 0 24 -10 41 -21 l29 -21 25 23 c23 21 25 21 43 5 25 -23 33
-58 21 -90 -7 -20 -16 -26 -40 -26 -17 0 -38 -4 -48 -9 -9 -6 -34 -13 -54 -16
-41 -6 -47 -15 -23 -35 10 -9 32 -11 65 -7 60 7 63 -2 14 -48 -38 -36 -38 -59
0 -49 16 4 25 0 29 -10 4 -9 15 -16 26 -16 11 0 21 -5 23 -11 3 -9 9 -9 25 0
35 18 46 14 39 -15 -6 -24 -5 -25 23 -19 23 5 36 1 51 -13 l21 -20 -22 -16
c-19 -13 -51 -16 -164 -16 -77 0 -150 -3 -163 -6 -23 -7 -23 -7 -2 -21 42 -30
14 -73 -47 -73 -35 0 -69 -22 -59 -38 10 -17 75 -15 125 3 36 12 43 13 47 0 3
-8 -4 -28 -15 -44 -19 -27 -28 -61 -16 -61 3 0 21 6 40 14 40 17 52 8 57 -43
4 -46 21 -49 59 -12 43 43 52 40 47 -19 -1 -28 0 -50 3 -50 4 0 33 32 64 70
36 44 62 67 67 62 6 -6 4 -21 -6 -40 -26 -51 -16 -87 12 -42 16 26 42 26 42 0
0 -11 7 -20 15 -20 8 0 15 -7 15 -16 0 -9 -7 -14 -18 -13 -9 2 -31 -4 -47 -13
-40 -21 -147 -42 -182 -35 -15 2 -43 11 -61 18 -30 13 -34 12 -43 -4 -6 -10
-22 -17 -39 -17 -22 0 -29 -5 -32 -22 -2 -19 -10 -23 -48 -26 -57 -4 -70 -17
-31 -30 45 -16 38 -37 -23 -76 -30 -19 -57 -39 -60 -45 -11 -18 28 -13 80 9
54 23 80 14 51 -18 -26 -28 -22 -52 8 -52 23 0 25 -3 18 -27 l-6 -28 38 29
c25 20 40 26 43 18 2 -7 11 -19 19 -28 14 -13 17 -13 32 1 20 17 40 20 42 5 1
-5 3 -14 4 -20 1 -5 3 -13 4 -16 0 -3 18 5 38 17 36 22 89 27 106 10 12 -12
-11 -26 -85 -50 -65 -21 -98 -44 -84 -58 4 -4 26 -2 49 4 57 16 66 3 32 -47
-15 -22 -25 -44 -21 -47 4 -4 32 5 62 21 30 16 58 26 61 22 4 -4 0 -27 -9 -51
-16 -43 -16 -45 2 -45 10 0 23 -8 29 -17 9 -17 10 -17 28 0 25 22 30 21 36 -3
8 -32 42 -23 80 21 38 43 51 40 45 -13 -4 -45 15 -45 52 2 41 52 56 51 64 -5
8 -50 15 -54 41 -25 11 13 23 17 32 11 17 -9 67 33 77 67 8 23 30 30 41 12 3
-5 14 -10 24 -10 13 0 26 19 46 65 26 63 55 86 55 45 0 -28 11 -25 45 10 32
33 53 38 62 14 4 -12 14 -14 40 -9 l35 6 -7 -83 c-4 -46 -18 -117 -31 -158
-13 -41 -24 -78 -24 -83 0 -4 66 -6 147 -5 l148 3 -3 48 c-3 36 0 47 11 47 8
0 17 -7 21 -15 10 -26 47 -16 82 22 28 30 34 33 40 19 3 -9 4 -25 1 -36 -9
-34 13 -34 48 0 39 38 60 35 70 -9 7 -35 16 -38 35 -15 7 8 23 14 35 12 12 -1
33 9 49 24 17 15 46 29 70 32 37 6 45 12 66 51 14 25 30 45 37 45 7 0 24 -15
40 -34 23 -29 30 -33 47 -24 16 9 23 6 38 -12 15 -19 21 -20 33 -10 12 10 19
10 27 2 9 -9 7 -28 -9 -80 -11 -37 -24 -75 -28 -84 -7 -17 4 -18 145 -18 l152
0 -6 23 c-23 75 -20 91 23 125 33 27 42 30 47 18 3 -8 3 -20 -1 -26 -13 -21 6
-30 35 -15 25 13 34 13 77 -1 26 -9 55 -20 65 -25 10 -5 20 -3 27 5 8 10 35
13 92 12 66 -1 82 1 89 15 5 9 24 22 42 30 18 7 38 20 44 28 15 19 42 7 46
-21 2 -18 10 -24 36 -26 36 -4 39 -13 17 -66 l-15 -36 143 0 c79 0 146 3 150
6 3 3 -1 23 -8 45 -13 36 -12 42 8 74 12 19 25 34 30 35 4 0 24 -11 45 -24 23
-15 60 -27 100 -31 56 -6 62 -9 62 -30 0 -13 -4 -35 -10 -49 l-10 -26 152 0
151 0 -6 37 c-3 21 -9 55 -13 75 -6 34 -5 38 15 38 12 0 31 6 42 13 18 10 23
9 43 -15 15 -20 31 -28 52 -28 16 0 35 -5 42 -12 8 -8 15 -8 27 2 13 11 18 10
33 -4 26 -22 46 -20 81 10 34 28 51 25 51 -12 0 -31 4 -31 52 11 23 19 44 32
49 30 4 -3 10 -19 14 -35 7 -33 25 -39 45 -15 8 10 17 12 29 5 12 -7 24 0 54
32 35 38 39 40 64 29 21 -10 29 -9 44 5 18 16 20 16 37 1 22 -20 42 -6 42 29
0 13 10 30 22 38 21 15 24 14 48 -9 34 -33 46 -32 59 5 12 35 26 38 41 10 14
-27 4 -97 -26 -177 l-23 -63 151 0 150 0 -6 23 c-15 49 -19 100 -8 93 6 -4 23
1 37 10 24 16 25 15 35 -10 11 -30 19 -32 46 -11 28 21 61 19 69 -5 5 -17 10
-18 26 -9 12 6 28 8 36 5 9 -4 21 1 29 11 13 17 15 17 33 -6 17 -23 20 -23 35
-8 13 12 27 15 60 11 37 -6 46 -3 55 14 10 19 58 42 87 42 17 0 19 -36 3 -45
-6 -4 1 -13 18 -22 21 -11 33 -12 51 -4 18 9 24 8 28 -4 8 -21 47 -19 77 5 49
39 55 23 31 -82 l-6 -28 146 0 147 0 -3 63 c-3 59 -2 62 21 65 15 2 30 -3 37
-12 10 -14 13 -15 24 -1 17 21 37 19 43 -5 7 -26 17 -25 61 5 40 27 56 25 56
-5 0 -28 15 -32 35 -10 10 11 27 20 37 20 21 0 19 -19 -8 -72 -8 -15 -14 -29
-14 -33 0 -3 65 -5 145 -5 98 0 145 4 145 11 0 6 -7 36 -16 67 -16 52 -15 56
1 68 26 20 90 12 117 -13 14 -13 43 -24 75 -29 68 -9 79 -21 58 -69 -8 -21
-15 -41 -15 -46 0 -10 283 -13 292 -3 3 3 0 29 -8 57 -8 29 -14 65 -14 81 0
23 3 27 20 23 11 -3 23 -1 26 4 11 19 54 9 70 -16 14 -21 22 -25 44 -20 18 4
31 1 40 -10 10 -12 16 -13 26 -4 11 9 20 8 38 -4 16 -11 26 -13 34 -5 14 14
114 21 145 9 20 -8 29 -6 43 10 9 10 27 19 39 19 14 0 26 10 34 27 10 22 14
24 22 12 5 -7 9 -22 9 -31 0 -20 16 -32 31 -22 19 11 83 12 97 1 9 -7 16 -5
26 9 14 18 15 18 35 0 19 -18 23 -18 37 -5 11 12 13 22 5 42 -12 30 -5 57 13
57 7 0 30 -18 51 -40 21 -22 43 -40 47 -40 5 0 13 11 18 25 12 31 19 31 64 3
45 -30 48 -38 31 -95 -24 -77 -31 -73 130 -73 168 0 156 -11 129 120 -17 87
-16 211 3 217 7 3 22 -11 34 -31 13 -22 26 -33 35 -29 10 4 21 -10 35 -46 18
-43 27 -52 58 -61 20 -5 45 -10 55 -10 11 0 30 -10 43 -22 l23 -21 0 26 c0 31
6 33 31 11 13 -12 22 -13 37 -5 22 12 132 -6 144 -23 4 -6 14 -4 26 7 24 22
29 21 35 -3 8 -31 41 -24 76 15 39 45 53 45 50 1 -5 -52 9 -55 46 -12 34 41
61 42 51 2 -4 -15 1 -26 15 -35 18 -11 24 -10 44 9 20 18 23 19 35 5 7 -8 10
-18 6 -22 -3 -3 6 -14 22 -23 23 -15 30 -15 47 -3 17 12 22 11 36 -8 15 -20
17 -20 46 -6 16 9 35 23 42 31 20 24 31 19 31 -14 0 -38 16 -38 56 1 43 41 60
33 69 -31 l7 -51 146 3 c168 3 154 -9 131 115 -11 59 -11 75 0 85 10 11 15 10
25 -4 12 -16 15 -16 36 7 31 33 37 32 54 -10 11 -26 21 -35 39 -35 53 0 55
-43 7 -155 l-19 -45 149 0 c170 0 162 -5 135 84 -8 28 -13 57 -10 67 8 25 63
31 76 8 5 -11 16 -16 24 -13 9 4 21 2 28 -4 13 -10 86 -27 101 -23 6 1 21 -3
34 -10 15 -9 26 -10 30 -3 8 11 124 12 158 0 26 -8 37 13 28 50 -7 27 12 32
49 13 16 -9 22 -9 25 0 2 6 17 11 33 11 22 0 34 -8 49 -32 11 -18 18 -42 15
-53 -3 -11 -8 -30 -11 -42 l-6 -23 144 0 c80 0 147 2 150 5 3 4 1 25 -4 48 -8
37 -7 44 11 56 12 7 21 19 21 27 0 23 19 26 48 6 48 -33 61 -34 59 -4 -2 22 2
26 18 24 11 -2 33 -5 48 -5 16 -1 34 -10 41 -20 17 -22 26 -22 26 3 0 20 24
28 35 11 3 -6 27 -7 54 -4 27 3 57 1 68 -6 19 -9 21 -7 27 24 4 18 4 45 0 59
-5 21 -3 26 12 26 11 0 28 -7 38 -15 25 -19 38 -19 34 -1 -2 8 0 15 5 15 39 4
49 -2 62 -32 18 -43 24 -48 47 -34 16 10 22 8 38 -10 l18 -23 16 23 15 22 21
-25 c20 -25 20 -25 36 -5 8 11 12 29 9 40 -14 44 -17 105 -7 105 6 0 32 -27
57 -60 25 -33 50 -60 55 -60 5 0 14 16 20 35 6 19 14 35 17 35 3 0 23 -16 44
-35 43 -38 66 -46 54 -18 -18 45 -18 56 5 73 l23 17 -21 31 c-46 64 -19 69 58
12 57 -43 85 -53 55 -20 -24 27 -13 50 25 50 37 0 73 17 65 31 -4 5 -16 9 -28
9 -37 0 -216 49 -257 70 -45 23 -65 51 -48 68 7 7 19 7 35 1 22 -8 23 -7 21
19 -3 25 0 27 40 30 44 3 52 12 27 32 -20 16 0 43 26 35 23 -8 70 5 63 17 -3
5 -17 13 -31 19 -28 10 -26 32 3 37 32 6 39 20 19 42 -21 24 -14 28 60 33 l50
3 -37 17 c-25 11 -38 24 -38 37 0 17 7 20 40 20 48 0 53 16 8 25 -138 28 -144
46 -29 93 76 31 111 56 98 68 -5 5 -110 -22 -162 -42 -23 -9 -19 22 10 63 13
20 22 39 20 42 -3 2 -31 -13 -63 -36 -128 -90 -169 -95 -292 -30 -102 52 -285
189 -311 230 -28 47 -6 60 31 19 32 -35 40 -38 59 -19 10 10 17 6 36 -17 l23
-29 4 33 c2 18 8 35 14 37 6 2 34 -15 63 -37 l51 -40 0 40 c0 38 12 52 25 30
12 -19 43 -10 60 17 l18 26 43 -49 c48 -54 54 -53 24 6 -11 22 -20 45 -20 53
0 25 57 57 101 57 28 0 46 6 54 17 11 15 18 15 69 3 89 -21 88 -1 -1 57 -69
44 -59 59 23 38 61 -15 114 -10 122 13 4 14 -38 32 -73 32 -36 0 -39 17 -8 45
l28 26 -120 -3 -120 -3 2 38 c2 31 0 38 -13 33 -8 -3 -40 -13 -71 -22 -53 -15
-60 -15 -112 1 -82 25 -277 125 -312 159 -40 39 -36 68 13 79 31 7 44 5 84
-19 37 -22 63 -28 127 -32 71 -4 79 -3 74 11 -10 27 9 28 33 2 21 -22 24 -23
35 -8 11 14 14 14 38 -2 25 -16 27 -16 62 11 31 24 35 31 29 57 -6 28 -5 29
21 23 18 -5 33 -2 44 8 9 8 39 25 66 36 28 12 71 31 97 43 l47 21 -25 23 c-13
12 -24 33 -24 46 0 12 -5 28 -11 34 -16 16 -4 30 53 59 27 14 48 27 45 30 -2
2 -46 0 -98 -6 -82 -9 -138 -7 -162 7 -4 2 -3 12 3 23 11 21 -10 30 -71 30
-47 0 -163 36 -184 56 -26 26 -17 42 39 68 30 14 57 26 61 26 3 0 19 -10 34
-21 39 -29 59 -21 32 12 -25 32 -12 49 36 49 40 0 41 6 8 32 -28 22 -25 38 6
38 30 0 149 124 149 154 0 12 -43 5 -90 -15 -61 -26 -84 -22 -88 14 -4 30 -16
30 -74 1 -39 -20 -70 -17 -141 11 -125 51 -175 106 -109 121 15 3 37 10 48 16
18 8 28 6 53 -13 27 -19 36 -21 68 -13 26 7 37 15 34 24 -2 8 -6 23 -8 33 -5
15 -2 16 21 7 22 -8 28 -7 33 8 4 9 11 20 16 24 20 13 33 72 23 100 -8 22 -6
35 13 68 12 22 18 40 13 40 -6 0 -51 -16 -101 -35 -117 -45 -152 -46 -197 -1
-37 37 -42 57 -19 76 11 9 22 9 49 -1 45 -16 53 -8 27 29 -30 42 -27 62 7 62
35 0 45 9 31 27 -9 10 -7 18 6 33 25 27 17 31 -35 18 -71 -16 -247 -5 -303 20
-47 21 -61 45 -32 56 8 3 15 17 15 31 0 30 20 33 45 5 10 -11 24 -20 32 -20
23 0 113 44 113 55 0 6 -13 26 -30 45 -44 52 -40 64 18 55 82 -14 87 -13 87
17 1 34 29 65 67 73 23 5 27 10 18 20 -15 18 -4 35 20 35 12 0 22 9 26 24 7
31 -1 46 -28 46 -11 0 -22 8 -25 20 -3 11 -14 20 -24 20 -11 0 -22 6 -25 14
-4 11 -16 10 -70 -4 -35 -10 -66 -14 -69 -10 -3 4 4 19 15 33 26 33 25 37 -6
37 -24 0 -25 3 -19 28 l6 27 -33 -31 c-18 -18 -43 -37 -55 -43 -52 -27 -176
-3 -240 45 -23 17 -37 40 -48 76 -8 28 -15 55 -15 60 0 15 22 8 38 -12 11 -13
36 -24 69 -29 57 -9 63 -7 63 20 0 29 17 31 48 4 37 -31 40 -31 44 -2 3 20 8
22 65 21 61 -1 62 0 57 23 -5 17 -2 23 10 23 9 0 16 8 16 19 0 10 12 26 26 36
21 14 23 19 13 32 -11 13 -8 20 21 48 19 17 48 46 64 63 l29 31 -29 11 c-16 6
-36 18 -46 26 -9 9 -27 14 -40 12 -20 -3 -23 1 -21 25 2 33 -9 34 -49 5 -54
-38 -168 -34 -129 5 6 6 11 26 11 45 l0 33 -37 -28 c-80 -61 -215 -22 -348
100 -68 61 -80 83 -43 74 12 -4 28 -1 35 5 10 8 18 7 31 -3 24 -20 60 -39 72
-39 5 0 10 11 10 25 0 14 6 25 13 25 8 0 24 -11 37 -25 29 -31 46 -32 53 -4 6
22 27 17 27 -6 0 -8 13 -21 29 -30 29 -14 30 -14 50 14 12 16 21 44 21 61 0
31 1 32 33 27 l34 -5 -3 69 c-1 42 2 69 8 69 6 0 23 -11 39 -25 37 -30 60 -24
53 15 -5 24 -1 30 37 51 24 13 45 32 47 41 3 14 -6 17 -50 20 -44 2 -53 6 -50
21 4 24 -2 22 -43 -14 -35 -31 -70 -34 -59 -4 3 8 1 15 -5 15 -6 0 -11 12 -11
26 0 26 -2 25 -54 -25 -30 -28 -64 -51 -74 -51 -39 0 -179 79 -221 125 -49 53
-56 95 -16 95 16 0 32 -11 47 -30 27 -37 38 -38 38 -5 0 34 13 31 44 -10 36
-47 56 -46 56 4 0 22 3 46 6 55 10 25 41 19 64 -13 20 -29 56 -49 67 -37 4 3
-8 26 -26 51 -18 25 -29 49 -26 55 9 15 35 12 41 -5 6 -14 64 -55 78 -55 4 0
2 9 -4 20 -13 25 -7 36 32 56 22 12 27 19 19 27 -22 22 -12 37 27 37 41 0 62
14 62 41 0 13 -12 20 -46 25 -28 4 -50 14 -57 25 -16 25 -34 24 -82 -6 -49
-30 -75 -32 -75 -6 0 10 -7 24 -15 31 -8 7 -15 18 -15 26 0 8 -10 12 -27 11
-20 -2 -28 3 -32 21 -6 23 -6 23 -36 -8 -17 -17 -45 -41 -63 -52 -29 -18 -39
-19 -72 -9 -54 16 -67 34 -46 66 24 37 20 42 -34 47 -34 3 -59 13 -74 27 -42
40 -77 221 -42 221 9 0 15 -18 19 -57 5 -57 33 -133 49 -133 4 0 10 12 14 28
14 68 19 70 46 17 16 -33 32 -51 46 -53 19 -3 20 0 15 33 -4 28 -2 39 13 50
28 21 31 19 52 -27 11 -24 31 -54 45 -67 l26 -23 6 36 c10 49 30 64 55 41 17
-16 23 -16 52 -4 80 32 96 57 55 84 -13 8 -29 26 -36 39 -8 13 -29 28 -51 35
-21 6 -48 19 -60 29 -18 14 -20 22 -11 44 5 14 7 29 4 32 -12 12 -49 5 -73
-14 -29 -23 -70 -26 -70 -6 0 7 11 21 25 30 19 13 24 22 19 40 -5 20 0 27 29
41 46 22 54 43 21 55 -14 6 -33 10 -43 10 -31 0 -55 25 -48 51 12 45 23 54 50
42 23 -11 29 -7 72 33 52 50 53 71 4 81 -17 3 -33 12 -36 20 -6 16 28 85 58
119 23 25 9 44 -32 44 -40 0 -43 13 -14 69 14 28 25 55 25 61 0 23 -27 7 -50
-30 -30 -48 -43 -54 -66 -29 -9 10 -21 19 -25 19 -5 0 -22 -43 -38 -95 -31
-100 -51 -136 -110 -197 -63 -68 -67 -61 -76 150 -7 160 1 192 50 192 21 0 25
-5 25 -30 0 -35 14 -39 32 -10 9 13 24 20 45 20 21 0 33 5 33 13 0 23 -49 80
-80 93 -31 13 -40 38 -17 47 7 3 33 1 58 -4 56 -11 61 -11 79 0 11 8 5 17 -29
48 l-43 38 36 44 c20 23 36 45 36 47 0 13 -33 -1 -74 -32 -32 -24 -48 -31 -50
-22 -3 7 -6 20 -9 28 -5 18 -33 -44 -43 -94 -7 -40 -49 -85 -64 -70 -6 6 -7
36 -1 84 8 60 21 96 66 184 36 71 52 113 46 119 -14 14 -39 -9 -56 -50 -15
-35 -39 -44 -49 -17 -3 9 -6 50 -6 92 -1 48 -6 87 -15 102 -13 23 -14 15 -15
-85z m-61 -542 c44 -55 65 -188 31 -188 -10 0 -20 21 -31 65 -8 36 -21 75 -27
87 -14 26 -16 63 -3 63 5 0 19 -12 30 -27z m-7502 -47 c29 -44 45 -103 41
-145 -5 -50 -25 -50 -38 1 -6 24 -18 63 -26 88 -8 25 -18 55 -21 68 -8 34 18
27 44 -12z m4660 -23 c32 -48 43 -82 43 -139 0 -78 -20 -66 -46 27 -11 41 -26
84 -33 97 -12 22 -8 42 9 42 5 0 17 -12 27 -27z m2823 -199 c37 -32 60 -73 60
-109 0 -37 -19 -29 -73 33 -71 79 -61 137 13 76z m-7520 -24 c42 -22 87 -113
69 -141 -13 -21 -119 97 -119 133 0 20 21 23 50 8z m4693 -59 c36 -40 56 -96
40 -112 -14 -14 -113 96 -113 126 0 38 32 32 73 -14z m3155 -62 c6 -33 -153
-179 -179 -164 -13 9 -11 59 3 73 7 7 26 12 43 12 27 0 37 8 64 51 33 50 62
62 69 28z m-7508 -36 c0 -34 -134 -163 -170 -163 -7 0 -10 16 -8 43 3 42 3 42
46 45 23 2 42 7 42 11 0 4 14 26 30 49 30 40 60 48 60 15z m4667 -30 c9 -27
-154 -172 -178 -158 -13 9 -11 59 3 73 7 7 27 12 45 12 26 0 36 6 45 25 6 14
15 25 19 25 4 0 11 9 14 21 7 22 45 24 52 2z m-7364 -103 c19 -38 27 -67 25
-94 -4 -55 -24 -57 -38 -4 -7 24 -21 65 -31 92 -23 60 -24 68 -1 64 9 -2 30
-28 45 -58z m8589 -39 c33 -63 40 -145 12 -139 -11 2 -23 24 -34 63 -9 33 -22
70 -28 82 -17 32 -15 55 5 51 9 -2 30 -27 45 -57z m1532 -71 c19 0 36 -5 38
-12 2 -6 18 -11 36 -10 38 1 44 -24 12 -53 -23 -21 -50 -13 -50 14 0 17 -5 19
-34 14 -28 -4 -39 -1 -61 21 -29 29 -26 53 5 36 10 -5 34 -10 54 -10z m-5444
-48 c19 -28 24 -50 25 -94 0 -32 -4 -58 -10 -58 -5 0 -19 31 -31 68 -11 37
-26 77 -33 90 -13 25 -7 44 12 36 7 -2 23 -21 37 -42z m-2066 18 c19 0 38 -4
41 -10 3 -5 19 -10 35 -10 37 0 46 -15 26 -45 -21 -33 -52 -32 -60 0 -5 21
-10 24 -37 18 -23 -4 -36 0 -54 17 -31 29 -34 56 -6 40 11 -5 35 -10 55 -10z
m4665 -30 c15 0 32 -5 39 -12 6 -6 25 -11 42 -10 36 1 41 -25 10 -53 -23 -21
-50 -13 -50 14 0 17 -5 19 -35 14 -29 -5 -41 -1 -60 17 -34 32 -33 53 1 40 14
-6 38 -10 53 -10z m-7303 -54 c33 -33 44 -51 44 -75 0 -17 -3 -31 -6 -31 -12
0 -89 74 -102 98 -15 25 -10 52 9 52 6 0 31 -20 55 -44z m10407 -2 c-6 -16
-29 -19 -38 -4 -4 6 -1 17 5 26 15 18 42 0 33 -22z m-7508 -20 c0 -10 -8 -20
-17 -22 -18 -3 -26 27 -11 42 12 11 28 0 28 -20z m5691 -18 c33 -33 44 -51 44
-75 0 -17 -4 -31 -8 -31 -13 0 -88 74 -102 99 -13 25 -7 51 11 51 6 0 31 -20
55 -44z m-1029 -20 c-4 -9 -11 -16 -17 -16 -17 0 -24 31 -9 41 18 11 34 -5 26
-25z m-7249 -57 c4 -20 -83 -107 -133 -133 -44 -24 -64 -11 -49 31 8 23 16 29
46 31 30 3 43 11 70 47 33 45 60 54 66 24z m4342 -24 c49 -25 97 -113 71 -130
-12 -7 -91 66 -108 100 -10 19 -7 45 3 45 3 0 18 -7 34 -15z m4248 -18 c5 -27
-131 -147 -167 -147 -16 0 -23 38 -11 60 8 15 21 20 50 20 22 0 40 4 40 9 0
15 63 82 74 78 6 -2 12 -11 14 -20z m-3901 -124 c8 -24 -135 -143 -172 -143
-18 0 -21 50 -3 68 7 7 25 12 42 12 22 0 38 10 64 41 33 38 61 47 69 22z
m5110 -85 c4 -78 -7 -112 -29 -90 -13 13 -17 136 -5 166 14 35 30 0 34 -76z
m-7509 -31 c2 -70 0 -87 -12 -87 -19 0 -26 22 -26 90 0 66 7 93 24 87 7 -2 12
-37 14 -90z m3195 16 c32 -45 44 -138 18 -138 -12 0 -50 90 -68 164 -9 35 16
23 50 -26z m1468 5 c2 -60 -2 -132 -8 -138 -12 -13 -33 39 -33 84 0 65 9 96
26 96 10 0 14 -14 15 -42z m-6776 -78 c4 -6 1 -17 -5 -26 -10 -11 -16 -12 -26
-3 -11 9 -11 15 -3 25 14 17 25 18 34 4z m8591 -41 c9 -15 -11 -33 -30 -26 -9
4 -13 13 -10 22 7 17 30 20 40 4z m-4129 -41 c6 -5 24 -10 39 -11 35 -3 41
-20 15 -46 -27 -27 -39 -26 -50 2 -8 20 -15 23 -41 19 -23 -3 -37 2 -56 19
-13 12 -24 26 -24 30 0 10 102 -1 117 -13z m5051 -5 c-4 -22 -22 -20 -26 1 -2
10 3 16 13 16 10 0 15 -7 13 -17z m-8995 -21 c23 -26 47 -87 47 -121 0 -56
-31 -46 -46 14 -4 17 -15 47 -25 67 -11 21 -19 42 -19 48 0 16 25 12 43 -8z
m1490 -13 c-17 -17 -37 -1 -22 17 8 10 15 12 23 4 7 -7 7 -13 -1 -21z m3292
-30 c35 -39 47 -89 22 -89 -16 0 -107 95 -107 113 0 38 39 27 85 -24z m1373
14 c-5 -25 -28 -28 -28 -4 0 12 6 21 16 21 9 0 14 -7 12 -17z m2792 2 c0 -8
-6 -15 -14 -15 -17 0 -28 14 -19 24 12 12 33 6 33 -9z m150 -12 c0 -20 -3 -24
-11 -16 -7 7 -9 19 -6 27 10 24 17 19 17 -11z m-7656 -1 c2 -4 1 -14 -4 -22
-7 -11 -12 -12 -21 -3 -6 6 -8 16 -5 22 8 13 23 14 30 3z m156 -22 c0 -11 -4
-20 -10 -20 -5 0 -10 9 -10 20 0 11 5 20 10 20 6 0 10 -9 10 -20z m2570 5 c0
-16 -27 -32 -37 -22 -3 4 -3 13 0 22 8 20 37 20 37 0z m4475 -21 c19 -29 56
-31 73 -4 14 23 52 27 52 5 0 -19 9 -19 32 2 21 19 45 5 35 -21 -16 -41 -173
-90 -216 -67 -32 18 -54 105 -28 114 19 6 34 -2 52 -29z m235 11 c0 -8 -7 -15
-15 -15 -8 0 -15 7 -15 15 0 8 7 15 15 15 8 0 15 -7 15 -15z m-2770 -5 c0 -12
-28 -25 -36 -17 -9 9 6 27 22 27 8 0 14 -5 14 -10z m150 -15 c0 -14 -4 -25
-10 -25 -11 0 -14 33 -3 43 11 11 13 8 13 -18z m-5124 -10 c25 -38 52 -42 81
-11 28 31 38 32 52 9 8 -15 12 -16 22 -5 19 18 39 15 39 -6 0 -27 -28 -48 -89
-66 -104 -30 -144 -18 -157 49 -10 57 22 76 52 30z m242 8 c-4 -22 -22 -20
-26 1 -2 10 3 16 13 16 10 0 15 -7 13 -17z m4417 -33 c34 -35 55 -38 80 -10
21 24 55 27 55 5 0 -14 3 -14 24 0 19 13 25 13 34 2 31 -36 -68 -87 -170 -87
-43 0 -49 3 -63 30 -22 42 -19 90 5 90 3 0 19 -13 35 -30z m245 4 c0 -8 -7
-14 -15 -14 -15 0 -21 21 -9 33 10 9 24 -2 24 -19z m-952 -22 c9 -29 -150
-144 -177 -128 -15 9 -14 39 1 54 7 7 26 12 43 12 24 0 39 9 65 40 33 40 59
48 68 22z m-5903 -45 c4 -13 5 -50 3 -82 -2 -45 -7 -60 -18 -60 -12 0 -16 16
-18 69 -2 38 -1 75 2 83 8 20 25 15 31 -10z m816 -46 c25 -25 39 -48 39 -65 0
-14 -4 -26 -8 -26 -16 0 -112 97 -112 113 0 30 40 19 81 -22z m7777 -51 c3
-75 -9 -110 -28 -80 -11 17 -13 143 -3 154 18 18 28 -7 31 -74z m-5105 -43
c20 -30 27 -52 25 -77 -4 -48 -28 -45 -43 5 -6 22 -19 55 -29 73 -18 34 -14
55 7 46 7 -2 25 -24 40 -47z m-2366 -4 c7 -19 -45 -68 -116 -108 -53 -30 -58
-31 -66 -4 -9 29 21 59 59 59 23 0 38 9 60 35 32 38 53 44 63 18z m3561 -58
c2 -37 0 -75 -3 -84 -11 -29 -35 18 -35 68 0 109 33 123 38 16z m1180 9 c18
-8 37 -12 42 -9 16 10 24 -23 10 -40 -18 -21 -51 -19 -57 5 -4 15 -11 18 -34
13 -32 -6 -79 18 -79 41 0 18 69 11 118 -10z m-5378 -35 c34 -28 43 -30 80
-24 32 5 45 3 61 -11 18 -16 21 -16 54 2 27 14 37 16 47 6 9 -9 7 -17 -10 -35
-12 -13 -22 -26 -22 -30 0 -11 38 -8 45 4 11 17 30 4 30 -21 0 -33 17 -35 49
-5 16 15 34 24 42 21 18 -7 30 -74 15 -89 -6 -6 -51 -13 -100 -15 -88 -4 -90
-4 -149 32 -65 40 -86 44 -108 21 -24 -23 -48 -18 -98 20 -26 19 -50 35 -55
35 -21 0 -34 30 -23 55 15 33 29 31 69 -10 30 -31 63 -46 63 -28 0 3 -11 21
-25 39 -26 34 -33 64 -14 64 5 0 28 -14 49 -31z m-590 6 c0 -8 -7 -15 -15 -15
-8 0 -15 7 -15 15 0 8 7 15 15 15 8 0 15 -7 15 -15z m9338 -13 c13 -13 23 -16
34 -9 19 13 49 -15 77 -75 32 -65 43 -82 79 -118 32 -31 33 -32 52 -15 17 16
20 16 20 2 0 -35 -106 -94 -203 -112 -30 -6 -37 -4 -37 9 0 9 6 16 14 16 8 0
28 11 43 25 l28 24 -53 1 c-45 0 -55 3 -59 20 -6 24 -7 24 -38 4 -23 -15 -26
-14 -55 6 -16 12 -30 24 -30 28 0 3 12 19 28 35 l27 29 -25 -7 c-14 -4 -35
-13 -47 -21 -30 -19 -53 -18 -53 4 0 14 -4 12 -20 -8 -11 -14 -24 -39 -30 -56
-12 -35 -43 -50 -60 -29 -16 19 6 96 39 136 l28 33 34 -17 c41 -20 48 -8 18
33 -34 45 -13 60 37 26 48 -33 51 -32 46 2 -3 22 1 31 20 39 35 17 66 15 86
-5z m-748 -22 c0 -21 -15 -27 -25 -10 -7 12 2 30 16 30 5 0 9 -9 9 -20z
m-8640 -4 c0 -8 -4 -17 -9 -21 -12 -7 -24 12 -16 25 9 15 25 12 25 -4z m6230
-11 c0 -19 -13 -25 -30 -15 -11 7 -11 11 -1 24 15 17 31 13 31 -9z m-6083 -17
c-3 -7 -5 -2 -5 12 0 14 2 19 5 13 2 -7 2 -19 0 -25z m1789 5 c-10 -10 -19 5
-10 18 6 11 8 11 12 0 2 -7 1 -15 -2 -18z m-1588 -8 c25 -31 38 -32 46 -3 5
22 7 21 44 -15 21 -20 43 -37 50 -37 15 0 16 -16 1 -25 -5 -4 -36 -10 -67 -15
-48 -6 -61 -5 -85 12 -32 23 -61 74 -53 94 9 22 43 16 64 -11z m3762 15 c0 -5
12 -10 26 -10 17 0 28 -6 31 -19 3 -11 16 -22 29 -25 16 -4 24 -14 24 -27 0
-15 5 -19 19 -14 27 8 48 -3 61 -35 17 -41 -14 -94 -35 -59 -13 20 -54 29 -83
17 -38 -17 -37 -16 -17 -38 21 -23 24 -85 6 -103 -12 -12 -54 13 -76 47 -11
17 -29 26 -63 31 -56 8 -72 19 -65 45 8 32 29 43 53 30 17 -9 26 -7 49 12 16
13 36 28 46 34 23 13 11 34 -19 34 -41 0 -51 24 -25 59 23 31 39 40 39 21z
m-4408 -39 c22 -26 40 -27 63 -1 22 24 51 26 59 4 6 -15 8 -15 26 1 23 21 47
8 36 -20 -14 -37 -172 -78 -214 -56 -28 15 -48 77 -32 96 14 17 35 8 62 -24z
m238 20 c0 -14 -18 -23 -30 -16 -6 4 -8 11 -5 16 8 12 35 12 35 0z m3661 -14
c40 -27 65 -67 56 -91 -6 -15 -13 -12 -52 20 -49 40 -70 69 -60 84 9 15 18 12
56 -13z m4989 8 c0 -8 -7 -15 -15 -15 -8 0 -15 7 -15 15 0 8 7 15 15 15 8 0
15 -7 15 -15z m147 -22 c-3 -10 -5 -4 -5 12 0 17 2 24 5 18 2 -7 2 -21 0 -30z
m-2917 -13 c0 -22 -12 -44 -42 -77 -48 -51 -178 -143 -203 -143 -9 0 -43 15
-76 33 -45 24 -59 37 -59 55 0 30 -21 28 -55 -8 -35 -37 -55 -26 -55 32 0 44
20 59 52 39 16 -10 30 -7 83 18 35 17 66 35 70 41 3 5 10 10 16 10 20 0 7 -28
-31 -65 -22 -21 -40 -43 -40 -47 0 -12 38 -10 45 2 10 17 35 11 35 -7 1 -14 5
-12 23 9 12 15 31 27 42 27 65 -1 136 35 160 81 20 38 35 38 35 0z m3124 5 c9
-14 22 -25 30 -25 20 0 45 -33 52 -68 6 -27 4 -32 -13 -32 -21 0 -46 23 -56
53 -4 10 -17 17 -31 17 -27 0 -56 33 -56 62 0 29 54 24 74 -7z m-664 -10 c29
-31 57 -32 88 -2 23 21 24 21 37 4 11 -16 16 -16 34 -5 14 9 24 9 31 2 34 -34
-49 -77 -148 -78 l-67 -1 -18 38 c-31 63 -3 91 43 42z m246 14 c8 -14 -18 -31
-30 -19 -9 9 0 30 14 30 5 0 12 -5 16 -11z m-7289 -45 c17 -8 38 -11 47 -8 11
4 16 0 16 -13 0 -41 -57 -61 -67 -23 -4 15 -11 18 -34 13 -31 -6 -79 18 -79
40 0 16 73 11 117 -9z m3501 8 c2 -7 -3 -12 -12 -12 -9 0 -16 7 -16 16 0 17
22 14 28 -4z m552 -8 c0 -8 -4 -12 -10 -9 -5 3 -10 10 -10 16 0 5 5 9 10 9 6
0 10 -7 10 -16z m-3263 -20 c16 -26 16 -27 -6 -45 -34 -27 -41 -24 -41 19 0
59 18 69 47 26z m-1305 -1 c26 -24 22 -36 -9 -28 -34 8 -47 20 -39 34 10 16
27 14 48 -6z m4528 -19 c35 -32 40 -42 40 -80 0 -56 -12 -56 -67 -2 -44 43
-55 82 -31 106 16 16 12 17 58 -24z m-570 6 c0 -21 -15 -27 -25 -10 -7 12 2
30 16 30 5 0 9 -9 9 -20z m-750 -15 c0 -17 -72 -76 -127 -103 -34 -18 -43 -19
-52 -8 -23 28 16 70 55 60 13 -3 31 7 58 35 37 38 66 45 66 16z m910 5 c0 -11
-4 -20 -10 -20 -5 0 -10 9 -10 20 0 11 5 20 10 20 6 0 10 -9 10 -20z m194 -15
c28 -30 46 -32 46 -5 0 28 13 25 38 -10 12 -16 34 -33 48 -36 13 -4 31 -19 39
-34 13 -25 12 -29 -9 -49 -28 -27 -36 -26 -96 4 -91 46 -151 113 -128 143 16
19 37 14 62 -13z m-3578 -6 c9 -16 -12 -33 -31 -25 -14 5 -15 9 -5 21 15 18
26 19 36 4z m2924 -14 c28 -30 51 -32 75 -5 21 24 43 26 51 5 5 -12 9 -12 30
1 22 15 24 15 30 0 14 -36 -42 -66 -148 -81 -42 -6 -50 -4 -72 18 -32 32 -36
87 -8 87 10 0 29 -11 42 -25z m240 10 c0 -8 -7 -15 -15 -15 -8 0 -15 7 -15 15
0 8 7 15 15 15 8 0 15 -7 15 -15z m-4070 -9 c0 -3 -4 -8 -10 -11 -5 -3 -10 -1
-10 4 0 6 5 11 10 11 6 0 10 -2 10 -4z m490 -86 c-14 -35 -87 -100 -172 -154
-66 -42 -79 -43 -124 -15 -41 25 -45 59 -9 83 30 20 45 20 45 1 0 -21 9 -19
31 9 12 15 26 22 38 19 10 -3 22 0 25 6 4 6 18 11 32 11 41 0 85 29 101 67 13
33 16 34 30 20 14 -13 14 -20 3 -47z m4403 -11 c-11 -11 -53 1 -53 15 0 7 6
18 13 25 10 10 16 8 30 -10 10 -12 14 -26 10 -30z m-3544 15 c26 -33 26 -44 2
-44 -20 0 -51 35 -51 57 0 22 27 14 49 -13z m4035 4 c9 -35 7 -101 -4 -118
-16 -25 -33 4 -34 57 -1 74 24 113 38 61z m-3874 -7 c0 -11 -39 -25 -47 -18
-3 3 -2 10 2 16 8 13 45 15 45 2z m-1316 -20 c3 -5 -1 -14 -8 -20 -16 -13 -32
2 -21 19 8 12 22 13 29 1z m3320 -10 c9 -13 -19 -32 -38 -25 -17 6 -20 16 -9
27 9 10 41 9 47 -2z m-172 -70 c15 -6 35 -8 43 -5 23 9 19 -33 -4 -46 -28 -15
-39 -13 -46 10 -5 15 -12 18 -35 13 -30 -6 -80 17 -80 37 0 12 85 5 122 -9z
m98 -1 c0 -5 -4 -10 -10 -10 -5 0 -10 5 -10 10 0 6 5 10 10 10 6 0 10 -4 10
-10z m4141 -37 c8 -10 33 -47 54 -83 21 -36 43 -67 47 -69 5 -1 18 -13 29 -24
17 -19 22 -20 40 -9 32 20 33 7 2 -22 -35 -33 -122 -66 -188 -73 -42 -4 -56
-1 -88 21 -45 31 -47 31 -47 7 0 -36 -12 -51 -39 -51 -36 0 -46 10 -48 48 -2
22 2 32 12 32 8 0 15 9 15 19 0 11 9 26 21 35 15 10 19 20 14 35 -5 17 5 31
47 71 29 27 58 49 64 50 6 0 17 7 24 15 16 19 24 19 41 -2z m-6977 -19 c8 -21
8 -119 -1 -127 -3 -4 -12 -2 -20 4 -13 12 -19 120 -6 132 11 11 20 8 27 -9z
m-825 -8 c7 -8 23 -17 36 -20 13 -3 29 -15 35 -26 6 -11 18 -20 27 -20 11 0
14 -7 11 -25 -4 -21 -1 -25 19 -25 27 0 41 -26 24 -43 -24 -24 -231 110 -231
149 0 11 6 13 19 9 11 -3 22 -1 26 5 9 14 20 13 34 -4z m111 -1 c0 -8 -4 -15
-9 -15 -13 0 -22 16 -14 24 11 11 23 6 23 -9z m87 -17 c-3 -8 -6 -5 -6 6 -1
11 2 17 5 13 3 -3 4 -12 1 -19z m3257 6 c3 -9 6 -27 6 -40 0 -30 26 -84 41
-84 6 0 16 14 22 30 6 17 14 30 18 30 4 0 16 -16 28 -35 25 -43 65 -50 55 -10
-5 20 -1 27 22 37 22 10 28 10 32 -1 6 -19 62 -81 73 -81 5 0 14 12 20 27 14
37 30 45 51 26 14 -12 23 -13 49 -4 18 6 35 11 39 11 4 0 23 -25 41 -55 19
-30 42 -57 52 -61 33 -11 17 -35 -38 -60 -31 -13 -57 -24 -60 -24 -2 0 -12 16
-21 35 -13 28 -22 35 -45 35 -15 0 -32 7 -37 15 -7 14 -11 14 -33 -3 -50 -40
-89 -54 -129 -47 -49 8 -69 29 -52 56 18 28 16 29 -34 29 -25 0 -54 5 -65 10
-35 19 -82 141 -64 169 9 16 22 13 29 -5z m2606 1 c10 -12 10 -19 2 -27 -15
-15 -48 14 -38 31 10 15 21 14 36 -4z m-5720 -5 c0 -5 -2 -10 -4 -10 -3 0 -8
5 -11 10 -3 6 -1 10 4 10 6 0 11 -4 11 -10z m5160 -5 c0 -8 -7 -15 -15 -15 -8
0 -15 7 -15 15 0 8 7 15 15 15 8 0 15 -7 15 -15z m3323 -54 c9 -8 17 -21 17
-28 0 -16 -38 -36 -56 -29 -15 6 -19 61 -7 92 6 17 7 17 17 -1 6 -10 19 -25
29 -34z m-5459 23 c14 -38 -57 -110 -182 -183 -60 -35 -73 -37 -105 -17 -12 8
-39 22 -60 31 l-39 16 7 -30 c6 -30 6 -31 -27 -24 -18 3 -41 10 -50 15 -20 10
-24 28 -7 28 6 0 8 8 5 18 -7 20 61 79 104 89 14 3 36 14 49 25 29 22 41 23
41 4 0 -8 -16 -27 -35 -42 -45 -34 -45 -48 -1 -40 23 5 36 3 39 -6 4 -9 11 -6
24 9 10 12 27 22 38 22 31 -1 108 21 133 37 13 8 27 26 32 40 11 27 25 31 34
8z m2651 -14 c45 -36 65 -39 58 -9 -5 17 -2 20 18 17 17 -2 25 -11 30 -36 9
-45 15 -49 49 -28 l30 17 0 -35 c0 -19 5 -38 11 -41 13 -9 -15 -42 -43 -51
-22 -7 -47 19 -48 49 0 22 -20 13 -68 -32 -40 -37 -62 -38 -147 -6 -106 40
-175 94 -175 139 0 23 47 20 67 -4 21 -24 43 -26 43 -5 0 23 26 18 44 -10 9
-14 25 -25 36 -25 16 0 20 7 20 33 0 30 14 57 31 57 3 0 23 -13 44 -30z m-567
8 c-6 -18 -28 -21 -28 -4 0 9 7 16 16 16 9 0 14 -5 12 -12z m3216 -22 c36 -34
47 -66 22 -66 -20 0 -106 69 -106 85 0 27 47 16 84 -19z m-3064 9 c0 -8 -4
-15 -10 -15 -5 0 -10 7 -10 15 0 8 5 15 10 15 6 0 10 -7 10 -15z m-545 -35 c0
-22 -29 -18 -33 3 -3 14 1 18 15 15 10 -2 18 -10 18 -18z m112 -11 c37 -18 41
-23 33 -40 -8 -14 -22 -19 -51 -19 -32 0 -41 4 -51 25 -8 19 -8 28 2 40 16 19
15 19 67 -6z m-487 -7 c0 -13 76 -43 92 -37 15 6 48 -18 48 -35 0 -4 -14 -13
-31 -20 -23 -10 -38 -10 -67 -1 -72 22 -164 104 -99 87 14 -3 29 -2 32 4 7 12
25 13 25 2z m4277 -29 c4 -11 -26 -27 -35 -19 -2 3 -2 12 2 21 6 18 27 16 33
-2z m-8757 -19 c0 -11 -5 -14 -16 -10 -9 3 -18 6 -20 6 -3 0 -2 5 1 10 10 16
35 12 35 -6z m520 -8 c0 -8 -4 -17 -9 -21 -12 -7 -24 12 -16 25 9 15 25 12 25
-4z m8348 -8 c2 -12 -5 -19 -22 -24 -35 -8 -49 2 -35 27 13 24 52 22 57 -3z
m-2788 -1 c0 -14 -20 -37 -32 -37 -10 0 -11 34 -1 43 11 12 33 8 33 -6z
m-5045 -37 c21 -16 48 -30 60 -30 26 0 74 -35 63 -45 -4 -4 -21 -3 -37 3 -29
10 -43 1 -21 -13 17 -10 11 -35 -7 -35 -10 0 -41 11 -70 24 -41 19 -52 30 -58
54 -6 30 8 72 24 72 5 0 25 -13 46 -30z m90 20 c3 -6 -1 -13 -10 -16 -19 -8
-30 0 -20 15 8 14 22 14 30 1z m-655 -15 c0 -8 -7 -15 -15 -15 -16 0 -20 12
-8 23 11 12 23 8 23 -8z m1884 0 c7 -18 35 -30 94 -39 40 -6 42 -5 42 18 0 34
14 39 41 17 21 -17 22 -22 11 -41 -11 -19 -11 -24 4 -34 10 -8 15 -20 11 -30
-5 -12 -1 -16 18 -16 29 0 39 -13 30 -41 -7 -20 -13 -21 -69 -17 -61 5 -149
41 -174 71 -11 13 -42 101 -42 120 0 13 28 7 34 -8z m304 -12 c4 -24 -27 -47
-51 -37 -16 6 -29 42 -21 56 3 5 20 8 37 6 24 -2 33 -8 35 -25z m-2041 -5 c-3
-8 -6 -5 -6 6 -1 11 2 17 5 13 3 -3 4 -12 1 -19z m2658 -49 c0 -50 -3 -64 -15
-64 -11 0 -16 14 -18 54 -4 61 3 84 21 78 8 -2 12 -25 12 -68z m-2455 41 c19
-19 53 -28 48 -12 -2 4 1 8 7 10 5 1 11 -11 13 -26 3 -31 -14 -42 -64 -42 -27
0 -78 54 -71 74 9 22 43 20 67 -4z m6195 -4 c16 -20 31 -25 75 -28 51 -3 55
-1 58 20 4 27 16 28 49 2 33 -26 41 -25 45 3 4 26 44 35 78 17 17 -9 19 -14 9
-26 -10 -12 -8 -19 10 -37 30 -33 27 -50 -19 -91 -38 -34 -44 -36 -108 -36
-113 0 -204 56 -223 137 -16 70 -9 80 26 39z m-3138 -13 c-15 -16 -17 -16 -17
-1 0 9 6 18 13 21 20 7 22 -2 4 -20z m3503 -123 c0 -5 -4 -10 -10 -10 -5 0
-10 5 -10 10 0 6 5 10 10 10 6 0 10 -4 10 -10z m1636 -1 c10 -17 -13 -36 -27
-22 -12 12 -4 33 11 33 5 0 12 -5 16 -11z m109 -35 c-34 -27 -65 -31 -65 -9 0
20 72 57 85 43 7 -6 0 -18 -20 -34z m-7610 6 c-5 -8 -11 -8 -17 -2 -6 6 -7 16
-3 22 5 8 11 8 17 2 6 -6 7 -16 3 -22z m4649 11 c23 -25 13 -41 -26 -41 -33 0
-32 8 -12 -90 5 -23 2 -31 -12 -37 -11 -3 -31 -16 -46 -28 -36 -30 -115 -68
-127 -61 -5 3 -7 24 -4 46 l6 40 -47 -26 c-39 -22 -56 -26 -101 -22 -65 5
-198 68 -263 123 -42 37 -48 57 -13 48 10 -3 22 0 26 7 5 8 11 7 23 -3 10 -8
26 -17 37 -19 11 -3 28 -9 38 -13 13 -5 17 -2 17 14 0 26 10 26 54 0 l35 -20
11 21 c11 21 12 20 40 -10 15 -16 34 -30 42 -30 21 0 48 37 48 65 0 23 3 25
28 19 38 -9 42 -13 42 -34 0 -11 10 -20 27 -25 24 -6 33 0 71 44 48 56 77 64
106 32z m-2994 -6 c0 -8 -7 -15 -15 -15 -16 0 -20 12 -8 23 11 12 23 8 23 -8z
m-1740 -19 c0 -32 -69 -91 -169 -144 -72 -39 -78 -40 -108 -27 -44 19 -46 49
-3 40 25 -6 30 -4 30 13 0 26 34 55 68 58 86 7 113 17 139 50 30 40 43 43 43
10z m6007 7 c4 -10 -2 -23 -16 -35 -46 -37 -69 -14 -29 29 26 27 36 29 45 6z
m-1127 -2 c0 -13 -81 -71 -98 -71 -24 0 -8 33 27 57 35 23 71 30 71 14z
m-3192 -23 c-6 -18 -28 -21 -28 -4 0 9 7 16 16 16 9 0 14 -5 12 -12z m149 -20
c-3 -8 -6 -5 -6 6 -1 11 2 17 5 13 3 -3 4 -12 1 -19z m200 -1 c15 -13 36 -26
46 -30 9 -3 17 -15 17 -26 0 -23 25 -34 50 -21 27 15 30 13 30 -20 0 -40 -19
-39 -108 5 -70 35 -108 74 -98 101 8 21 31 17 63 -9z m-409 -9 c-6 -18 -28
-21 -28 -4 0 9 7 16 16 16 9 0 14 -5 12 -12z m-53 -18 c0 -8 -8 -16 -17 -18
-13 -2 -18 3 -18 18 0 15 5 20 18 18 9 -2 17 -10 17 -18z m5968 -25 c0 -6 -7
-11 -16 -13 -12 -3 -15 1 -11 13 7 17 25 17 27 0z m-8986 -45 c29 0 63 -21 63
-38 0 -4 18 -27 40 -51 23 -24 37 -48 33 -52 -18 -18 -153 30 -180 63 -17 19
-43 100 -36 111 3 4 15 -1 27 -12 13 -12 36 -21 53 -21z m8906 -9 c11 -11 -52
-48 -97 -56 -40 -8 -45 -2 -38 44 l5 34 60 -7 c34 -3 65 -10 70 -15z m-8095
-39 c2 -12 10 -22 18 -22 21 0 13 -34 -8 -38 -10 -2 -33 9 -53 23 -38 30 -48
61 -16 50 11 -3 22 -1 26 5 10 17 30 6 33 -18z m2877 17 c10 -15 -1 -23 -20
-15 -9 3 -13 10 -10 16 8 13 22 13 30 -1z m4965 -43 c0 -28 -24 -53 -35 -36
-4 6 -4 22 -1 36 8 31 36 32 36 0z m-7770 -56 c0 -5 -7 -10 -15 -10 -8 0 -15
5 -15 10 0 6 7 10 15 10 8 0 15 -4 15 -10z m-1640 -8 c0 -11 -39 -47 -69 -62
-15 -8 -26 -9 -33 -2 -14 14 -3 29 40 52 40 21 62 25 62 12z m8438 -8 c32 -22
28 -44 -7 -44 -39 0 -45 -12 -26 -56 20 -49 20 -52 -17 -69 -18 -8 -55 -29
-82 -47 -47 -30 -53 -31 -160 -32 -88 -1 -118 3 -143 16 -41 23 -50 38 -30 53
10 7 17 21 17 32 0 32 11 34 40 9 30 -25 80 -25 101 0 6 8 17 14 25 14 27 0
25 23 -5 60 -17 21 -31 44 -31 49 0 14 53 14 67 0 6 -6 19 -12 29 -13 11 -1
23 -12 29 -24 5 -11 20 -24 33 -27 19 -5 32 4 69 45 49 54 57 58 91 34z m152
-24 c0 -14 -81 -71 -94 -67 -23 8 -9 32 29 54 43 24 65 29 65 13z m-4277 -93
c22 4 27 2 27 -15 0 -30 49 -36 77 -10 19 17 27 19 46 11 24 -11 55 -82 43
-101 -17 -28 -116 -15 -213 28 -103 46 -201 133 -129 114 13 -3 27 -1 30 4 4
6 23 1 50 -13 27 -14 53 -21 69 -18z m-933 -2 c26 -25 28 -25 69 -12 38 14 42
13 54 -4 24 -34 83 -67 101 -57 26 15 19 -8 -9 -26 -48 -31 -224 -16 -275 25
-25 19 -25 19 -5 35 11 8 21 20 21 27 1 7 2 18 3 25 2 18 12 15 41 -13z m1300
11 c0 -17 -79 -68 -92 -60 -18 11 -6 31 30 52 43 25 62 28 62 8z m-130 -6 c0
-5 -4 -10 -10 -10 -5 0 -10 5 -10 10 0 6 5 10 10 10 6 0 10 -4 10 -10z m5345
-89 c6 -11 -37 -47 -67 -57 -26 -8 -47 11 -30 28 10 10 62 33 84 37 4 0 9 -3
13 -8z m-2900 -11 c4 -6 19 -9 33 -8 23 3 27 -1 27 -21 0 -36 -70 -86 -142
-102 -79 -18 -77 -19 -80 28 -5 72 26 123 43 71 l7 -22 18 23 c20 24 38 21 40
-7 0 -10 7 -3 15 16 14 33 28 40 39 22z m-507 -19 c30 -22 120 -35 138 -20 16
13 42 1 50 -24 6 -19 8 -19 19 -4 17 24 30 21 43 -8 9 -19 19 -25 43 -25 41 0
36 -26 -11 -52 -65 -36 -234 -6 -283 50 -13 16 -37 75 -37 93 0 13 8 11 38
-10z m-4716 -191 c20 -19 44 -42 54 -50 18 -14 18 -15 -4 -18 -12 -2 -43 6
-68 19 -36 17 -50 31 -65 66 -34 80 -13 76 83 -17z m7871 -32 c13 -6 19 -5 23
7 8 19 38 20 53 1 17 -21 -20 -43 -84 -51 -42 -6 -55 -3 -84 17 -56 37 -51 48
16 42 32 -4 66 -10 76 -16z m1415 -30 c3 -15 -4 -18 -37 -18 -42 0 -63 16 -40
31 23 15 73 6 77 -13z m-9173 2 c-3 -5 -11 -10 -16 -10 -6 0 -7 5 -4 10 3 6
11 10 16 10 6 0 7 -4 4 -10z m6689 -19 c8 -12 -32 -61 -49 -61 -23 0 -28 20
-11 45 16 25 50 33 60 16z m-4056 -78 l21 21 9 -24 9 -25 7 23 c6 19 14 22 57
22 37 0 49 -4 49 -15 0 -21 -32 -50 -80 -75 -44 -22 -112 -21 -145 4 -15 10
-14 15 1 51 l16 40 18 -22 17 -22 21 22z m6802 -3 c0 -5 -4 -10 -9 -10 -6 0
-13 5 -16 10 -3 6 1 10 9 10 9 0 16 -4 16 -10z m-2995 -165 c0 -17 -9 -21 -55
-26 -30 -3 -59 -3 -64 2 -15 13 4 29 34 29 16 0 32 5 35 11 12 18 50 6 50 -16z
m-1360 -224 c3 -5 -2 -17 -11 -26 -15 -14 -19 -15 -32 -2 -8 8 -11 20 -8 26 9
13 43 15 51 2z m-80 -60 c7 -12 -31 -25 -45 -16 -6 4 -8 11 -5 16 8 12 42 12
50 0z m4465 -36 c0 -8 -4 -15 -8 -15 -13 0 -32 23 -32 37 0 11 5 11 20 3 11
-6 20 -17 20 -25z m-2887 -120 c-2 -5 -28 -11 -58 -13 -51 -3 -66 4 -48 22 11
11 108 2 106 -9z m-323 -490 c41 -21 37 -40 -10 -59 -52 -21 -67 -20 -80 3
-17 33 -12 46 23 58 17 5 33 11 35 12 2 0 16 -6 32 -14z m-8966 -270 c-4 -8
-12 -15 -20 -15 -8 0 -14 7 -14 15 0 8 9 15 20 15 13 0 18 -5 14 -15z m234
-162 c13 -16 25 -23 28 -17 3 6 11 19 18 29 12 16 16 17 45 4 17 -8 34 -22 37
-31 6 -20 19 -23 29 -8 8 13 65 13 65 0 0 -21 -65 -50 -110 -50 -26 0 -51 -5
-58 -12 -10 -10 -19 -9 -45 5 -18 10 -43 16 -56 15 -38 -5 -48 24 -22 61 27
38 39 39 69 4z m272 2 c0 -8 -9 -15 -20 -15 -20 0 -26 11 -13 23 12 13 33 7
33 -8z m7658 -1031 c16 -11 22 -25 22 -55 0 -48 -14 -56 -65 -35 -31 13 -36
20 -31 38 3 13 6 33 6 46 0 27 34 30 68 6z m10 -175 c-2 -6 -8 -10 -13 -10 -5
0 -11 4 -13 10 -2 6 4 11 13 11 9 0 15 -5 13 -11z"/>
</g>
</svg>
